<svg height="100%" version="1.1" width="100%" xmlns="http://www.w3.org/2000/svg" preserveAspectRatio="xMidYMid meet" viewBox="0 0 600 442" xmlns:xlink="http://www.w3.org/1999/xlink"><desc>Created with Snap</desc><defs/><g id="root" contentwidth="280" contentheight="326.04595588235287">
          <rect class="background" height="2000%" width="2000%" y="-1000%" x="-1000%" style="" fill="#ffffff"/>
          <g class="content" id="content" transform="matrix(1,0,0,1,153.8,344.0105)">
            <g class="icon" style="mask: url(#mask);">
            <svg height="217.62757352941173" version="1.1" width="217.62757352941173" xmlns="http://www.w3.org/2000/svg" x="37.386213235294136" y="-286.0334558823529"><desc>Created with Snap</desc><defs/><svg xmlns="http://www.w3.org/2000/svg" xmlns:xlink="http://www.w3.org/1999/xlink" preserveAspectRatio="xMidYMid meet" viewBox="0 0 512 512">
<g fill="#f7931e">
<svg class="icon" preserveAspectRatio="xMidYMid meet" version="1.0" viewBox="0 0 512 512">
<g>
<svg height="512" preserveAspectRatio="xMidYMid meet" width="512">
<svg version="1.1" viewBox="0 0 50 51">
<path d="M0 0 C3.1 0.2 3.1 0.2 6.1 2.2 C9.6 2.6 9.6 2.6 13.1 2.2 C13.7 1.6 14.4 0.9 15.1 0.2 C18.1 0 18.1 0 21.1 0.2 C23.1 2.3 23.1 2.3 23.3 4.7 C23.1 7.2 23.1 7.2 21.1 10.2 C22.4 10.9 23.7 11.6 25.1 12.2 C25.1 14.2 25.1 16.2 25.1 18.2 C24 18.5 22.9 18.8 21.8 19.1 C18.2 19.9 18.2 19.9 16.6 21.8 C13.8 24.5 9.8 24.3 6.1 24.2 C2.8 23.3 1.4 22.6 -0.9 20.2 C-2.9 19.5 -4.9 18.9 -6.9 18.2 C-6.9 16.3 -6.9 14.3 -6.9 12.2 C-5.6 11.6 -4.3 10.9 -2.9 10.2 C-3.6 9.3 -4.3 8.3 -4.9 7.2 C-5.2 4.7 -5.2 4.7 -4.9 2.2 C-2.9 0.2 -2.9 0.2 0 0 Z M3.1 8.2 C4.1 10.2 4.1 10.2 4.1 10.2 Z M14.1 8.2 C15.1 10.2 15.1 10.2 15.1 10.2 Z " fill="#323D46" transform="translate(15.9375,13.75)"/>
<path d="M0 0 C1 0 2 0 3 0 C3 0.9 3.1 1.7 3.1 2.6 C3.5 12 3.5 12 8 20 C13.2 24.3 17.7 24.5 24.3 24.5 C27.1 24.2 27.1 24.2 28.9 22 C29.2 21.3 29.6 20.7 30 20 C32 20.3 34 20.7 36 21 C35.7 23 35.3 25 35 27 C34 27.3 33 27.7 32 28 C32 27.3 32 26.7 32 26 C31.5 26.3 31 26.6 30.5 26.9 C24.1 29.6 18.8 29.3 12.4 27.1 C6.2 24.3 2.5 20.3 0 14 C-0.3 10.4 -0.3 10.4 -0.2 6.6 C-0.2 5.4 -0.1 4.1 -0.1 2.9 C-0.1 1.9 -0 1 0 0 Z " fill="#545E66" transform="translate(4,18)"/>
<path d="M0 0 C3.1 0.2 3.1 0.2 6.1 2.2 C6.7 2.6 7.4 2.9 8.1 3.2 C6.1 4.2 6.1 4.2 4.1 5.2 C4.4 8.2 4.4 8.2 5.1 11.2 C5.7 11.6 6.4 11.9 7.1 12.2 C7.1 12.9 7.1 13.6 7.1 14.2 C5.7 14.2 4.4 14.2 3.1 14.2 C2.7 16.9 2.4 19.5 2.1 22.2 C1.1 21.6 0.1 20.9 -0.9 20.2 C-2.9 19.5 -4.9 18.9 -6.9 18.2 C-6.9 16.3 -6.9 14.3 -6.9 12.2 C-5.6 11.6 -4.3 10.9 -2.9 10.2 C-3.6 9.3 -4.3 8.3 -4.9 7.2 C-5.2 4.7 -5.2 4.7 -4.9 2.2 C-2.9 0.2 -2.9 0.2 0 0 Z " fill="#3C464E" transform="translate(15.9375,13.75)"/>
<path d="M0 0 C0.7 0 1.3 0 2 0 C2 0.7 2 1.3 2 2 C2.7 1.7 3.4 1.4 4.1 1 C10.3 -1.2 17.5 -1.1 23.4 1.6 C28.3 4.5 32 8.7 34 14 C34.2 17.5 34.2 17.5 34.1 21.2 C34.1 22.5 34.1 23.8 34.1 25.1 C34 26 34 27 34 28 C33 28 32 28 31 28 C31 27.1 30.9 26.3 30.9 25.4 C30.5 16 30.5 16 26 8 C20.8 3.7 16.3 3.5 9.7 3.5 C6.9 3.8 6.9 3.8 5.1 6 C4.8 6.7 4.4 7.3 4 8 C1 7.5 1 7.5 -2 7 C-1.1 1.1 -1.1 1.1 0 0 Z " fill="#535D65" transform="translate(12,4)"/>
<path d="M0 0 C3 0.2 3 0.2 5 2.2 C5.4 6 5.1 7 3 10.2 C-0.1 11.4 -0.1 11.4 -3 12.2 C-3 12.9 -3 13.6 -3 14.2 C-4.3 13.6 -5.6 12.9 -7 12.2 C-6.3 11.9 -5.7 11.6 -5 11.2 C-3.7 8.3 -3.7 8.3 -4.6 5.2 C-4.7 4.2 -4.9 3.2 -5 2.2 C-3 0.2 -3 0.2 0 0 Z " fill="#3B464E" transform="translate(34,13.75)"/>
<path d="M0 0 C3.1 0.2 3.1 0.2 6.1 2.2 C6.7 2.6 7.4 2.9 8.1 3.2 C7.4 3.5 6.8 3.7 6.1 3.9 C3.8 5.1 3.8 5.1 3.3 7.9 C3.2 8.7 3.1 9.4 3.1 10.2 C0.2 10.4 0.2 10.4 -2.9 10.2 C-5.1 7 -5.3 6 -4.9 2.2 C-2.9 0.2 -2.9 0.2 0 0 Z " fill="#424C54" transform="translate(15.9375,13.75)"/>
<path d="M0 0 C1.1 0.3 1.1 0.3 2.2 0.7 C3 3.4 3 3.4 3.2 6.7 C1.3 9.1 1.3 9.1 -0.8 10.7 C-3.2 10.1 -3.2 10.1 -5.8 8.7 C-6.6 5.6 -6.6 5.6 -6.8 2.7 C-4.3 0.4 -3.4 -0.4 0 0 Z " fill="#2A353E" transform="translate(26.75,16.3125)"/>
<path d="M0 0 C3.5 0.2 3.5 0.2 5.5 2.2 C5.6 5.4 5.6 5.4 5.5 8.2 C3.2 8.9 0.9 9.6 -1.5 10.2 C-1.8 9.5 -2.1 8.7 -2.4 7.9 C-3.5 5.1 -3.5 5.1 -5.5 2.2 C-3.5 0.2 -3.5 0.2 0 0 Z " fill="#2C3740" transform="translate(35.5,23.75)"/>
<path d="M0 0 C3 0.5 3 0.5 6 1 C5.7 3 5.3 5 5 7 C4 7.3 3 7.7 2 8 C2 7.3 2 6.7 2 6 C1.1 6.5 1.1 6.5 0.2 7 C-2 8 -2 8 -6 8 C-6 7.3 -6 6.7 -6 6 C-8 6 -10 6 -12 6 C-12 5.7 -12 5.3 -12 5 C-11.4 5 -10.8 4.9 -10.1 4.9 C-5 4.7 -5 4.7 -0.9 1.9 C-0.6 1.3 -0.3 0.7 0 0 Z " fill="#687278" transform="translate(34,38)"/>
<path d="M0 0 C0.7 0 1.3 0 2 0 C2 0.7 2 1.3 2 2 C2.7 1.6 3.5 1.3 4.2 0.9 C7.3 -0.1 8.1 0 11 1 C12.7 1.3 14.3 1.7 16 2 C16 2.3 16 2.7 16 3 C15.1 3 15.1 3 14.1 3.1 C9 3.3 9 3.3 4.9 6.1 C4.6 6.7 4.3 7.3 4 8 C1 7.5 1 7.5 -2 7 C-1.1 1.1 -1.1 1.1 0 0 Z " fill="#656E75" transform="translate(12,4)"/>
<path d="M0 0 C5.9 1 5.9 1 12 2 C12 2.7 12 3.3 12 4 C8.6 5.2 6.6 4.8 3.2 3.6 C2.5 3.3 1.7 3 0.8 2.7 C0.2 2.5 -0.4 2.2 -1 2 C-0.7 1.3 -0.3 0.7 0 0 Z " fill="#404B53" transform="translate(16,42)"/>
<path d="M0 0 C1.6 0 3.3 0 5 0 C4.7 2 4.3 4 4 6 C3 6.3 2 6.7 1 7 C1 6.3 1 5.7 1 5 C0.3 5 -0.3 5 -1 5 C-0.7 3.4 -0.3 1.7 0 0 Z " fill="#49535B" transform="translate(35,39)"/>
<path d="M0 0 C0.7 0 1.3 0 2 0 C2 0.7 2 1.3 2 2 C2.7 2 3.3 2 4 2 C4 2.7 4 3.3 4 4 C5 4.3 6 4.7 7 5 C6.3 5.7 5.7 6.3 5 7 C1.9 6.6 1.9 6.6 -1 6 C-0.7 4 -0.3 2 0 0 Z " fill="#48525A" transform="translate(11,5)"/>
<path d="M0 0 C1.3 -0 2.5 -0.1 3.8 -0.1 C4.5 -0.1 5.2 -0.2 6 -0.2 C8 0 8 0 11 2 C10.7 2.3 10.3 2.7 10 3 C8.1 2.9 6.3 2.8 4.4 2.6 C2.9 2.4 2.9 2.4 1.4 2.3 C0.6 2.2 -0.2 2.1 -1 2 C-0.7 1.3 -0.3 0.7 0 0 Z " fill="#37424A" transform="translate(23,4)"/>
<path d="M0 0 C0 1 0 2 0 3 C-3.5 3 -4.4 2.2 -7 0 C-4.3 -1.3 -2.8 -0.7 0 0 Z " fill="#5B656C" transform="translate(38,7)"/>
<path d="M0 0 C2.6 0 5.3 0 8 0 C8 0.3 8 0.7 8 1 C6 1.7 4 2.3 2 3 C2 3.7 2 4.3 2 5 C0.7 4.3 -0.6 3.7 -2 3 C-1.3 2.7 -0.7 2.3 0 2 C0 1.3 0 0.7 0 0 Z " fill="#788188" transform="translate(29,23)"/>
<path d="M0 0 C1.3 0.7 2.6 1.3 4 2 C3.7 3.3 3.3 4.6 3 6 C1.7 4.7 0.4 3.4 -1 2 C-0.7 1.3 -0.3 0.7 0 0 Z " fill="#4C565D" transform="translate(38,9)"/>
</svg>
</svg>
</g>
</svg>
</g>
</svg></svg></g>
            <g id="icon_name_and_slogan_gap">
            </g>
            <g class="name_and_slogan" id="name_and_slogan_id">
              <g class="name"><g id="nameDefaultGroup"><path d="M11.9 -35.4Q11.3 -35.3 10.7 -35.4Q10 -35.5 9.4 -35.6Q8.3 -35.6 8.3 -37.6Q8.4 -38.5 8.4 -39.3Q8.4 -40.2 8.4 -41.1Q8.3 -43.8 9.9 -44.3Q10.1 -45 10.5 -45.7Q10.9 -46.5 11.7 -47.7Q12.4 -48.8 13.1 -50Q13.9 -51.3 14.6 -52.4Q15.3 -53.6 15.8 -54.4Q15.9 -54.5 16.4 -54.4Q16.9 -54.4 16.6 -53.6Q16.4 -53.3 16 -52.5Q15.5 -51.6 15.1 -50.8Q14.6 -49.9 14.2 -49.2Q13.8 -48.5 13.8 -48.5Q13.6 -48.2 14.1 -48.1Q14.5 -48 14.8 -48.3Q14.8 -48.4 15.3 -49.4Q15.8 -50.3 16.5 -51.5Q17.1 -52.7 17.7 -53.8Q18.2 -54.8 18.4 -55Q18.2 -54.9 18 -55Q17.7 -55.1 17.4 -55.2Q17.1 -55.4 17 -55.7Q16.8 -55.9 16.9 -56.1L16.9 -56.2Q17.9 -58.3 19.8 -58.4Q21.6 -58.5 24 -56.9Q24.8 -56.4 25.5 -55.9Q26.2 -55.4 26.7 -54.9Q27.3 -54.3 27.6 -53.6Q27.9 -52.9 27.9 -52Q27.9 -51.2 27.6 -50.5Q26.8 -48.5 26 -47.4Q25.1 -46.2 24.2 -45.2L28.4 -45.6Q27.9 -47.7 28.7 -48.9Q29.6 -50.1 31.5 -50.5Q32.6 -50.8 33.7 -50.8Q34.8 -50.9 35.6 -49.6Q35.7 -49.3 35.9 -49Q36 -48.8 36.1 -48.5Q36.7 -45.9 37.3 -43.8Q37.8 -42 38.2 -40.4Q38.6 -38.8 38.7 -38.4Q38.7 -37.5 38.1 -36.9Q37.5 -36.2 36.7 -36.1Q35.2 -35.9 33.7 -35.6Q32.5 -35.4 31.8 -35.6Q31.1 -35.9 30.7 -36.7Q29.4 -36.5 26.7 -36.2Q24 -36 21.2 -35.8Q18.3 -35.6 15.7 -35.5Q13.1 -35.4 11.9 -35.4zM68.1 -20.7Q68.7 -16.6 67.2 -14.1Q65.8 -11.5 61.3 -10.3Q60.3 -9.9 58 -9.7Q55.7 -9.4 53.1 -9.3Q50.5 -9.2 48.1 -9.4Q45.7 -9.6 44.4 -10.2Q43.8 -10.4 43.3 -11.2Q42.8 -12 42.7 -12.8L42.3 -15.5Q42.2 -16.3 42.1 -17.8Q42 -19.3 41.8 -21Q41.7 -22.7 41.6 -24.3Q41.5 -26 41.5 -27.3Q41.5 -27.4 41.7 -27.6Q41.8 -27.6 41.9 -27.5Q42 -27.5 42.1 -27.5Q42 -25.8 42.4 -23.9Q42.8 -22.1 43.1 -21.5Q43.3 -21.2 43.7 -21.3Q44.1 -21.5 44.1 -21.8L43 -28.4Q43.1 -28.5 42.5 -28.5Q42 -28.4 42 -28.3L41.9 -28.3Q41.9 -28.7 41.9 -29Q41.9 -29.4 42 -29.7Q42 -30.2 42.3 -30.7Q43.1 -31.7 44.7 -32.1Q46.3 -32.5 47.7 -32.5Q50.2 -32.4 52 -31.3Q53.9 -30.2 53.7 -28.7L53.4 -26.6Q54.5 -27.1 55.5 -27.6Q56.6 -28.1 57.5 -28.4Q58.4 -28.9 59.3 -29.3Q59.9 -29.5 60.3 -29.5Q61.5 -29.5 61.9 -28.8Q62.4 -28 62.8 -27.1Q64.2 -24 61.3 -22.8L52.9 -19.1Q52.9 -18.5 52.9 -18Q52.9 -17.4 53.1 -17Q53.1 -16.6 54 -16.3Q54.8 -16.1 55.8 -16.2Q56.9 -16.3 57.8 -16.5Q58.8 -16.8 59 -17.4Q59.2 -17.8 59.2 -18.8Q59.2 -19.8 59 -20.6Q58.8 -21.5 60.2 -22.1Q61.5 -22.8 63.2 -22.9Q64.9 -23 66.4 -22.5Q67.9 -22 68.1 -20.7zM66.2 -43.1Q66.5 -41 66.2 -39.5Q66 -38.1 65.1 -37.1Q64.2 -36.1 62.7 -35.4Q61.3 -34.7 59 -34.1Q58 -33.8 55.7 -33.7Q53.4 -33.5 50.8 -33.5Q48.2 -33.5 45.8 -33.8Q43.3 -34.1 42 -34.7Q41.4 -35 41 -35.8Q40.6 -36.6 40.5 -37.4L40.2 -40Q40 -41.8 40 -44.2Q40 -46.7 40 -49.2Q40 -49.3 40.1 -49.3Q40.2 -49.4 40.2 -49.5Q40.4 -49.4 40.7 -49.4Q40.6 -48.5 40.7 -47.6Q40.8 -46.7 40.9 -45.8Q41 -45 41.1 -44.3Q41.2 -43.7 41.4 -43.4Q41.5 -43.1 42 -43.2Q42.4 -43.3 42.4 -43.6L42 -46.9Q41.8 -48.2 41.7 -49.2Q41.5 -50.2 41.5 -50.2Q41.6 -50.4 41.1 -50.4Q40.5 -50.3 40.5 -50.2L40.5 -50.2Q40.5 -50.5 40.5 -50.9Q40.5 -51.3 40.5 -51.6Q40.6 -52 41 -52.6Q41.8 -53.6 43.4 -53.9Q45 -54.2 46.4 -54.1Q48.5 -53.9 50.2 -53Q52 -52.1 52.3 -50.8Q53.4 -51.1 54.5 -51.5Q55.6 -51.8 56.5 -52.2Q57.5 -52.5 58.4 -52.8Q59 -53 59.3 -52.9Q60.5 -52.8 60.8 -52Q61.2 -51.3 61.6 -50.3Q62.1 -48.8 61.6 -47.7Q61.1 -46.7 59.6 -46.2L51 -43.4Q50.8 -42.2 51 -41.1Q51 -40.7 51.9 -40.5Q52.7 -40.2 53.8 -40.2Q54.8 -40.2 55.7 -40.5Q56.7 -40.8 57 -41.3Q57.2 -41.8 57.3 -42.1Q57.4 -42.5 57.2 -43.3Q57.1 -44.2 58.4 -44.7Q59.8 -45.3 61.5 -45.4Q63.1 -45.4 64.6 -44.9Q66.1 -44.4 66.2 -43.1zM22.5 -12.8Q22.2 -12.6 21.8 -12.6Q21.5 -12.5 21.2 -12.5L20.9 -10.5Q20.9 -10 20.5 -9.6Q20.2 -9.4 19.9 -9.3Q19.5 -9.1 19.2 -9.1Q18.9 -9.1 18.3 -9.1Q17.1 -9.1 16 -9.1Q14.9 -9 13.8 -9Q11.5 -8.9 10.5 -9.6Q9.6 -10.2 9.5 -11.7Q9.5 -12.2 9.4 -13.5Q9.2 -14.7 9 -16.3Q8.8 -17.9 8.6 -19.8Q8.4 -21.6 8.2 -23.2Q8 -24.8 7.8 -26.1Q7.7 -27.4 7.7 -27.9Q7.7 -28 8.2 -28.2Q8.6 -28.4 8.7 -27.7Q8.8 -27.4 8.8 -26.4Q8.9 -25.3 8.9 -24.2Q9 -23 9 -22Q9.1 -21.1 9.1 -21Q9.1 -20.7 9.5 -20.9Q9.9 -21 9.9 -21.4Q9.9 -21.5 9.9 -22.8Q9.8 -24 9.7 -25.6Q9.6 -27.4 9.5 -29.6Q9.4 -29.3 8.6 -29.2Q7.8 -29.2 7.7 -29.5Q7.4 -31.5 8.9 -32.4Q10.4 -33.4 13.2 -33.5Q14.8 -33.5 16.7 -33.4Q18.5 -33.3 19.4 -32Q19.5 -31.8 19.7 -31.5Q19.8 -31.2 19.9 -30.9Q20.1 -29.7 20.2 -28.3Q20.4 -26.9 20.5 -25.2Q21.4 -25.2 21.9 -25.2Q22.5 -25.2 23 -25.2Q23.5 -25.2 24.2 -25.2Q24.8 -25.2 25.9 -25.2Q28.8 -25.3 28.8 -22.7Q28.8 -21.9 28.7 -21.2Q28.7 -20.6 27.6 -20.2Q27.2 -20 26.8 -20Q25.6 -19.9 25 -19.9Q24.3 -19.9 23.8 -19.9Q23.3 -19.9 22.8 -20Q22.2 -20 21 -20L20.9 -20Q20.9 -19.4 20.9 -18.9Q21 -18.3 21 -17.7Q21.7 -17.9 22.1 -18Q22.6 -18.1 23.1 -18.2Q23.5 -18.4 24.1 -18.5Q24.7 -18.7 25.7 -19Q28.4 -19.7 29.2 -17.2Q29.4 -16.5 29.5 -15.8Q29.6 -15.1 28.7 -14.5L28 -14.2Q26.9 -13.8 26.3 -13.6Q25.7 -13.5 25.2 -13.4Q24.8 -13.2 24.2 -13.1Q23.6 -13 22.5 -12.8zM23.1 -26.4Q22 -26.2 21.6 -27Q21.2 -27.9 20.9 -29.3Q20.5 -30.6 21 -31.6Q21.4 -32.5 23.5 -32.9Q25.1 -33.1 26.9 -33.3Q28.8 -33.4 30.7 -33.5Q32.5 -33.5 34.3 -33.4Q36.1 -33.3 37.3 -33Q38.3 -32.7 38.9 -31.3Q39.6 -30 39.8 -28.1Q40 -26.1 40.1 -24.2Q40.2 -22.4 40.1 -20.4Q40 -18.4 39.6 -16.1Q39.2 -13.8 38.6 -10.9Q38.2 -9.1 36.6 -8.9Q35 -8.6 31.5 -9.6Q31.3 -9.7 30.9 -9.8Q30.5 -9.9 30.2 -10Q29.9 -10.2 29.7 -10.5Q29.5 -10.8 29.5 -11.4Q29.9 -15.7 30.7 -18.9Q31.5 -22.1 31.8 -23.5Q32 -25.3 31.3 -26.1Q30.6 -26.9 29.3 -27Q27.9 -27.2 26.3 -27Q24.6 -26.7 23.1 -26.4zM12.5 -7.1Q13.2 -8.3 14.9 -8.5Q16.6 -8.8 18.2 -8.3Q19.9 -7.9 21.3 -6.9Q22.6 -5.9 22.7 -4.5Q22.8 -3 22.5 -1.7Q22.2 -0.4 21.9 1Q21.7 1.7 21.5 2.7Q21.2 3.7 20.9 4.6Q20.5 5.6 19.9 6.5Q19.2 7.3 18.1 7.8Q17.3 8.3 15.7 8Q14.2 7.6 12.5 6.9Q10.9 6.2 9.4 5.2Q7.8 4.2 7 3.4Q6.2 2.7 6.2 2Q6.2 1.3 6.7 0.5Q7.7 -1.1 9.3 -3Q10.9 -4.8 12.5 -7.1zM63.6 -7.1Q64.4 -5.1 65.2 -3.5Q65.7 -2.2 66.2 -0.9Q66.8 0.4 66.9 0.8Q67.4 2.5 65.5 3Q64.7 3.3 63.2 3.8Q61.8 4.4 61 4.8Q59.3 5.5 58.4 5Q57.5 4.5 56.7 2.9L54.4 -2.4Q53.4 -4.4 54 -5.7Q54.6 -7 58 -8.2Q59.2 -8.6 60.4 -9Q61.6 -9.3 62.9 -8.1Q63.4 -7.6 63.6 -7.1zM49 -5.2Q49.6 -3.2 50.1 -1.6Q50.5 -0.1 50.9 1.2Q51.2 2.5 51.3 3Q51.6 4.7 49.8 5Q48.9 5.2 48 5.4Q47.2 5.6 46.3 5.8Q44.6 6.3 43.7 5.8Q42.8 5.2 42.3 3.5L40.5 -1.4Q39.7 -3.6 40.6 -5Q41.5 -6.3 43.6 -6.9Q44.9 -7.3 46.1 -7.5Q47.3 -7.7 48.3 -6.4Q48.5 -6.1 48.7 -5.9Q48.9 -5.6 49 -5.2zM34.7 -4.8Q35.5 -3 36.1 -1.3Q36.7 0.1 37.2 1.4Q37.7 2.7 37.8 3.2Q38.3 4.9 36.4 5.3Q35.6 5.6 34.7 5.9Q33.8 6.1 33 6.5Q31.4 7.1 30.4 6.7Q29.5 6.2 28.8 4.5L26.6 -0.2Q24.8 -4.3 29.2 -6Q30.4 -6.5 31.5 -6.8Q32.7 -7.1 33.9 -5.9Q34.1 -5.6 34.3 -5.4Q34.6 -5.1 34.7 -4.8zM12.1 -1.8Q12.9 -2.8 13.6 -3.8Q14.3 -4.8 15 -5.8L15.3 -6.1Q15.5 -6.5 15.3 -6.6Q15.2 -6.6 15 -6.6Q14.3 -6.6 13.5 -5.4Q12.7 -4.4 11.9 -3.3Q11.2 -2.3 10.4 -1.3Q9.7 -0.4 10.2 -0.4L10.7 -0.4Q10.9 -0.2 11.3 -0.8L12.1 -1.8zM112.8 2.9L112.1 3.1Q111.8 3.1 111.6 3.1Q111.3 3.1 111 3Q109.7 2.9 108.7 2.9Q107.8 3 106.4 3Q103.8 2.8 103 1.9Q102.2 1 102 -0.9Q102 -1.6 101.8 -3.2Q101.7 -4.9 101.6 -7.1Q101.5 -9.4 101.3 -11.8Q101.1 -14.2 101 -16.5Q100.9 -18.7 100.8 -20.4Q100.7 -22.1 100.7 -22.8Q100.7 -22.8 100.8 -23Q100.9 -23.1 101.2 -23.1Q101.4 -23.2 101.5 -23Q101.7 -22.9 101.8 -22.5Q101.9 -22.1 102 -21.3Q102.2 -20.6 102.3 -19.8Q102.5 -19.1 102.7 -18.5Q102.8 -17.9 102.8 -17.8Q102.8 -17.4 103.3 -17.6Q103.8 -17.7 103.8 -18.2Q103.8 -18.3 103.6 -19.3Q103.5 -20.4 103.3 -21.6Q103 -23 102.7 -24.8Q102.6 -24.6 102 -24.5Q101.5 -24.3 101.1 -24.5Q100.9 -23.4 100.2 -22.4Q99.6 -21.6 98.9 -21.1Q98.3 -20.7 97.8 -20.4Q97.4 -20 97 -19.7Q97.5 -13 97.1 -7.3Q96.8 -1.6 95.3 1.8Q94.7 3 93.1 3.3Q91.6 3.8 89.8 3.2L86 2.2Q84.9 1.9 83.9 1.3Q82.9 0.7 82.3 -0.1Q81.6 -0.9 81.3 -1.9Q81 -2.9 81.4 -4Q82.4 -6.2 82.9 -10.8Q82.1 -10.4 81.4 -10Q80.7 -9.6 80.3 -9.4Q79.1 -8.9 78.3 -9.1Q77.6 -9.4 77.1 -10.4Q76.7 -11.4 76.2 -12.3Q75.7 -13.2 75.1 -14.1Q72.9 -17.7 76.9 -20L82.6 -23.5Q82.5 -24.8 82.2 -26.4Q81.3 -26.1 80.3 -25.7Q79.4 -25.4 78.5 -25.1Q76.2 -24.1 75.2 -26.4Q74.9 -27.4 74.4 -28.4Q73.9 -29.4 73.4 -30.4Q72.4 -32.4 73 -33.7Q73.5 -34.9 75.8 -36.1Q77.6 -36.9 79.1 -37.8Q78.9 -38.3 78.7 -38.8Q78.5 -39.2 78.3 -39.8Q77.6 -41.1 77.6 -42.6Q77.7 -44.1 78.3 -45.5Q79 -46.8 80.2 -47.8Q81.4 -48.8 83.1 -49Q84.4 -49.2 85.5 -49.4Q86.6 -49.5 87.5 -49.4Q88.5 -49.3 89.3 -48.9Q90.2 -48.5 91 -47.6Q91.7 -46.8 92 -46L92.2 -45.2Q94.3 -45.8 95.8 -45Q97.3 -44.1 98.3 -42.3Q98.6 -41.5 99 -40.8Q99.4 -40.1 99.6 -39.4Q99.7 -38.7 99.5 -37.9Q99.3 -37.1 98.5 -36.2Q98.1 -35.9 97.8 -35.5Q97.4 -35.2 97.1 -35L95 -33.8L95.6 -30.8Q96.8 -30.8 97.8 -30Q98.8 -29.3 99.6 -28.1Q99.8 -27.6 100.1 -27.2Q100.4 -26.8 100.6 -26.4Q100.9 -28.1 102.5 -28.9Q104.2 -29.7 106.9 -29.6Q107.9 -29.6 108.6 -29.5Q109.4 -29.5 109.9 -29.2Q110.5 -29 111 -28.5Q111.5 -28.1 112 -27.2Q112.2 -26.9 112.3 -26.5Q112.5 -26.1 112.6 -25.8Q112.9 -24.1 113.1 -21.8Q113.4 -19.6 113.5 -17.1Q114.3 -17.1 115.2 -17.1Q116.1 -17.1 117 -17.1Q117 -18.3 117 -19.3Q116.9 -20.3 116.9 -21.2L116.6 -21.2Q115.5 -21 114.6 -22Q113.8 -23 113.4 -24.8Q113.3 -25.6 113.4 -26.6Q113.5 -27.5 114 -28.3Q114.5 -29.2 115.3 -29.8Q116.1 -30.4 117.3 -30.6Q118.9 -30.8 121.6 -31Q124.3 -31.2 127.3 -31.3Q130.3 -31.3 132.9 -31.2Q135.6 -31.1 136.9 -30.7Q137.4 -30.5 138.1 -30.1Q138.8 -29.7 139.4 -29.2Q140 -28.6 140.5 -27.7Q140.9 -26.8 141 -25.6Q141 -24.3 141.1 -22.1Q141.1 -19.9 141.1 -17.4Q141.1 -14.9 141 -12.2Q141 -9.4 140.8 -7Q140.7 -4.6 140.4 -2.7Q140.2 -0.7 139.8 0.2L139.2 1.4Q139 2.5 138.1 3Q137.7 3.2 137.3 3.2Q136.5 3.2 134.6 3.3Q132.8 3.3 130.3 3.3Q127.9 3.3 125.3 3.3Q122.6 3.2 120.2 3.2Q117.9 3.2 116 3.1Q114.1 3.1 113.4 3L112.8 2.9zM115.9 -36.6Q115.6 -36.5 115.3 -36.5Q115.1 -36.4 114.8 -36.4Q114.8 -32.7 110.8 -32.5Q109.6 -32.4 108.5 -32.5Q107.4 -32.6 106.7 -34.1Q106.6 -34.4 106.5 -34.7Q106.3 -35 106.3 -35.4L106.2 -36.2Q105.2 -36.2 104.1 -36.4Q103.1 -36.6 102.1 -36.8Q99.9 -37.1 100.1 -40Q100.3 -42.7 100.3 -45.5Q100.2 -48.2 101.2 -49.3Q102.2 -50.4 104.5 -50.4Q104.8 -50.4 105.1 -50.4Q105.4 -50.3 105.8 -50.3Q105.8 -50.5 105.8 -50.7Q105.8 -50.9 105.8 -51Q105.9 -52.8 107.7 -52.7Q108.5 -52.7 109.4 -52.7Q110.2 -52.6 111 -52.7Q112.3 -52.8 113 -52.3Q113.7 -51.9 114 -50.8L114.1 -50.8Q117.1 -51 118.4 -49.2Q119.8 -47.4 119.8 -43.9Q119.8 -42.9 119.8 -41.9Q119.9 -40.9 119.7 -40Q119.5 -39.1 119 -38.4Q118.5 -37.7 117.6 -37.2Q116.8 -36.7 115.9 -36.6zM136 -37.4Q136.1 -35.6 135.1 -34.7Q134.1 -33.8 132.3 -33.7Q131.7 -33.6 131.1 -33.6Q130.5 -33.5 130 -33.7Q129.5 -33.8 129.1 -34.1Q128.7 -34.4 128.4 -35.1L128 -36.4Q127.9 -36.6 127.9 -37.2Q126.9 -37.2 126 -37.4Q125 -37.6 124 -37.7Q121.9 -38 122.1 -40.8Q122.2 -42.1 122.2 -43.4Q122.3 -44.7 122.3 -46Q122.3 -48.6 123.2 -49.6Q124.1 -50.7 126.3 -50.7Q126.6 -50.7 126.9 -50.6Q127.2 -50.6 127.5 -50.6Q127.6 -50.8 127.6 -51.3Q127.7 -53 129.3 -52.8Q130.9 -52.8 132.5 -52.8Q134.8 -52.9 135.2 -51L135.4 -51Q138.2 -51.2 139.5 -49.5Q140.8 -47.7 140.8 -44.5Q140.8 -43.5 140.8 -42.5Q140.8 -41.6 140.6 -40.8Q140.5 -40 140 -39.2Q139.6 -38.5 138.7 -38.1Q138 -37.7 137.1 -37.6L136 -37.4zM129.6 -6Q129.6 -7.1 129.6 -8.2Q129.5 -9.3 129.5 -10.4L126.2 -10.4Q126.2 -9.1 126.2 -8Q126.1 -6.9 126.1 -6L129.6 -6zM129.4 -17.1Q129.3 -17.7 129.3 -18.2Q129.3 -18.6 129.3 -19Q129.2 -20 129.2 -20.8Q129.1 -21.5 128.1 -21.8Q127.9 -21.8 127.3 -21.8Q126.6 -21.8 125.9 -21.8L126.1 -17.1L129.4 -17.1zM114.1 -6.2Q114.7 -6.2 115.5 -6.2Q116.3 -6.1 117.1 -6.1L117.1 -10.3L113.9 -10.3L114.1 -6.2zM80.6 -20.7Q79.3 -19.9 78.2 -19.1Q77 -18.4 75.8 -17.5L75.4 -17.2Q75 -16.8 75.2 -16.7Q75.3 -16.6 75.5 -16.6Q76.4 -16.3 77.8 -17.4L82.7 -20.6Q82.8 -20.6 82.8 -20.6Q82.8 -20.7 82.9 -20.7Q82.9 -21 82.8 -21.2Q82.8 -21.4 82.8 -21.6Q82.7 -21.6 82.7 -21.7Q82.5 -21.9 81.9 -21.5L80.6 -20.7zM201.7 -4.5Q202.3 -5.7 202.5 -6.8Q202.7 -7.8 202.8 -9.4Q202.8 -10.3 203.6 -10.9Q204.4 -11.5 205.6 -11.7Q206.9 -12 208.3 -11.8Q209.7 -11.7 211 -11.2Q212.3 -10.7 213.1 -9.8Q213.9 -8.9 214 -7.7Q214.1 -1.5 211.1 2Q208 5.5 201 6.8Q199.5 7.1 197.1 7Q194.7 6.9 192.2 6.2Q189.6 5.4 187.5 3.7Q185.3 2 184.4 -1Q184 -2.1 183.5 -4.1Q183 -6 182.5 -8.6Q181.9 -11.2 181.2 -14.1Q180.5 -17.1 179.8 -20.3Q178.3 -19.9 176.9 -19.9Q175.5 -19.8 174.1 -19.7Q172.7 -19.5 171.9 -20.3Q171.1 -21.1 170.9 -22.7Q170.6 -24.3 170.3 -25.8Q170 -27.4 169.6 -28.9Q168.8 -32 169.7 -33.4Q170.6 -34.9 173.3 -35.6Q174.7 -35.8 176.3 -36.2Q175.5 -39.5 175 -41.9Q174.4 -44.4 174 -45.8Q173.2 -48.9 175 -50.7Q176.9 -52.6 181 -53.4Q182.2 -53.6 183.4 -53.8Q184.6 -54 185.7 -54Q186.8 -53.9 187.8 -53.6Q188.8 -53.2 189.6 -52.3Q190.3 -51.4 190.5 -50.5Q190.9 -49.1 191.5 -46.4Q192.1 -43.7 192.7 -40.2Q196 -41 199 -41.8Q202 -42.6 204 -43.3Q207.4 -44.3 209.5 -42.7Q211.6 -41 212.5 -37.2Q212.8 -36.1 213.1 -35Q213.4 -33.8 213.4 -32.8Q213.5 -31.8 213.1 -30.8Q212.7 -29.9 211.7 -29Q211.3 -28.7 210.8 -28.4Q210.4 -28.1 209.9 -27.9Q207.1 -26.9 203.3 -25.9Q199.4 -24.9 195.3 -23.9Q195.7 -20.7 196.1 -17.8Q196.6 -14.8 197 -12.3Q197.4 -9.9 197.6 -8Q197.9 -6 198.1 -5Q198.2 -4.4 198.7 -4.1Q199.2 -3.8 199.8 -3.7Q200.4 -3.7 200.9 -3.8Q201.5 -4 201.7 -4.5zM170.5 -12Q170.5 -10.9 170.3 -9.7Q170.1 -8.6 170 -7.4Q169.8 -5.2 166.7 -5.3Q165.2 -5.5 163.8 -5.5Q162.4 -5.5 160.9 -5.5Q158 -5.4 156.9 -6.4Q155.7 -7.3 155.7 -9.6Q155.6 -11.7 155.5 -13.1Q155.5 -14.5 155.4 -15.7Q155.4 -16.8 155.3 -18Q155.2 -19.2 155 -20.9Q153.8 -21.4 152.4 -22.5Q151.1 -23.6 149.8 -24.9Q148.5 -26.3 147.5 -27.7Q146.5 -29.1 146 -30.2Q145.4 -31.5 145.7 -32.3Q146 -33.1 146.9 -33.9Q147.4 -34.3 148.9 -35.7Q150.4 -37.1 152.1 -38.7Q153.9 -40.3 155.5 -41.9Q157.3 -43.4 158.2 -44.3Q158.3 -44.4 158.5 -44.3Q158.8 -44.3 159 -44.1Q159.2 -44 159.2 -43.7Q159.3 -43.5 158.9 -43.1Q158.5 -42.7 157.4 -41.8Q156.3 -40.9 155.1 -39.9Q153.9 -39 152.8 -38.2Q151.8 -37.4 151.8 -37.4Q151.4 -37 152 -36.7Q152.5 -36.4 153 -36.9Q153.1 -37 153.9 -37.7Q154.6 -38.3 155.5 -39.2Q156.5 -40 157.6 -41Q158.7 -42 159.5 -42.9Q160.4 -43.8 161 -44.3Q161.5 -44.8 161.4 -44.8Q160.8 -44.6 160.3 -45.2Q159.9 -45.8 160.1 -45.9Q162.1 -47.7 164.3 -47.5Q166.5 -47.4 168.3 -46.1Q170 -44.8 171 -42.8Q171.9 -40.9 171.4 -39.2Q171.2 -38.4 170.5 -37.1Q169.8 -35.8 168.8 -34.3Q167.8 -32.8 166.8 -31.3Q165.8 -29.8 165 -28.7Q166.3 -28.7 167.3 -28.2Q168.3 -27.8 169 -26.6Q169.4 -25.8 169.6 -24.9Q170 -22.5 170.1 -21.1Q170.3 -19.7 170.3 -18.4Q170.4 -17.1 170.4 -15.7Q170.4 -14.3 170.5 -12zM205.3 -45.9Q204.9 -45.6 204.2 -45.1Q203.5 -44.6 202.5 -44.2Q201.5 -43.9 200.3 -43.9Q199 -43.9 197.6 -44.6Q196 -45.4 195 -46.9Q194 -48.5 194.2 -50.1Q194.5 -51.8 195.8 -53.4Q197.1 -54.9 198.6 -55.2Q200.8 -55.7 202.9 -54.8Q204.9 -53.9 205.9 -52Q207.8 -48.6 205.3 -45.9zM237.3 -18.6Q236.5 -18.4 235.9 -19.4Q235.4 -20.5 235.2 -22.3Q234.9 -24 235.5 -25.2Q236.2 -26.4 237.9 -26.7Q239 -26.9 239.9 -27.1Q240.8 -27.4 241.6 -27.5Q242.4 -27.6 243.2 -27.5Q244 -27.4 244.9 -26.9Q245.7 -26.4 246.5 -25.2Q247.3 -24 247.4 -21.7Q247.4 -19.7 247.4 -17.3Q247.4 -15 247.3 -12.7Q247.2 -10.4 246.9 -8.4Q246.7 -6.3 246.2 -4.9Q245.6 -2.7 244 -2.7Q243.9 -2.7 243.7 -2.7Q243.1 -2.5 242 -2.4Q241 -2.3 239.8 -2.2Q238.5 -2.2 237.2 -2.1Q235.9 -2 234.9 -2Q234.6 -1.8 234.4 -1.7Q233.9 -1.6 233.6 -1.6Q232.7 -1.4 231.8 -1.1Q230.8 -0.9 230 -0.6Q229.1 -0.5 228.1 -0.6Q227.2 -0.6 226.4 -1Q225.6 -1.3 225 -1.9Q224.5 -2.6 224.4 -3.5Q224.3 -4.5 224.1 -5.8Q223.9 -7.2 223.7 -8.6Q223.6 -10.1 223.4 -11.5Q223.3 -12.9 223.2 -13.8Q223.2 -13.9 223.3 -14Q223.3 -14.2 223.5 -14.2Q223.6 -14.3 223.8 -14.2Q223.9 -14.2 224 -13.8Q224.1 -13.4 224.2 -12.2Q224.4 -11.1 224.6 -9.8Q224.9 -8.6 225 -7.5Q225.1 -6.5 225.1 -6.4Q225.1 -6 225.5 -6.3Q225.9 -6.5 225.8 -7.1Q225.8 -7.1 225.7 -7.9Q225.6 -8.7 225.4 -10Q225.2 -11.2 225 -12.7Q224.8 -14.1 224.6 -15.4Q222.8 -16.1 220.9 -17.1Q219.1 -18.1 217.6 -19.4Q217 -19.9 216.9 -21.1Q216.7 -22.3 217.9 -24Q218.4 -24.6 219.1 -25.8Q219.9 -26.9 220.6 -28.2Q221.4 -29.6 222.2 -30.8Q222.9 -32 223.3 -32.8L221.3 -33Q219.2 -33.2 219.2 -36.2Q219.2 -39 219 -41.8Q218.8 -44.7 219.7 -45.9Q220.5 -47.1 222.7 -47.2Q227.2 -47.6 231.6 -48.3Q236.1 -49 240.5 -49.7Q243.3 -50.1 244.7 -48.3Q246.2 -46.6 246.4 -43Q246.5 -42 246.5 -40.9Q246.6 -39.9 246.5 -39Q246.4 -38.1 246 -37.3Q245.6 -36.4 244.7 -35.9Q244.4 -35.6 243.9 -35.5Q243.5 -35.3 243.1 -35.2Q242.3 -35 241.4 -34.8Q240.5 -34.7 239.8 -34.6Q238.8 -32.3 237 -29.2Q235.2 -26.1 233.3 -23Q233.4 -22.7 233.6 -22.1Q234.3 -18.7 234.5 -15.8Q234.8 -12.9 235.2 -9.6L238.9 -9.9Q239.2 -11.6 239.4 -13.2Q239.6 -14.8 239.6 -16.1Q239.6 -17.1 239.3 -18Q238.9 -18.9 237.3 -18.6zM269.9 -17.6Q268.5 -17.9 266.2 -17.9Q263.9 -17.9 261.4 -17.7Q258.8 -17.6 256.4 -17.4Q254 -17.3 252.4 -17.4Q251.8 -17.4 251.2 -17.8Q250.6 -18.1 250.1 -19Q249.6 -19.9 249.3 -21.2Q249 -22.6 249 -24.7Q249.1 -27.8 249.3 -30.5Q249.5 -33.1 249.9 -36.1Q250.1 -37.4 250.2 -38Q250.4 -38.6 250.7 -38.8Q250.9 -39.1 251.2 -39.1Q251.6 -39.1 251.9 -39.2Q253.3 -39.6 255.1 -39.7Q256.8 -39.8 258.4 -39.5Q260 -39.2 261.1 -38.5Q262.2 -37.9 262.1 -36.7Q261.9 -34.2 261.9 -32Q261.8 -29.9 261.9 -27.9Q264 -28.3 267.3 -28.7Q270.6 -29 273.8 -29.1Q277.1 -29.2 279.9 -29Q282.7 -28.8 283.8 -28Q285 -27.1 285.5 -25.3Q286.1 -23.4 286.2 -20.8Q286.2 -18.3 285.8 -15.3Q285.5 -12.4 284.8 -9.4Q284 -6.4 283.1 -3.6Q282.2 -0.9 281.2 1.2Q280.4 2.7 279 3.5Q277.6 4.4 275.8 4.6Q274 4.8 271.9 4.4Q269.9 3.9 267.8 2.7Q265.9 1.5 265.9 -0.5Q265.9 -2.5 266.8 -4.6Q267.7 -6.8 269 -8.9Q270.2 -10.9 270.8 -12.2Q272 -14.7 271.5 -16Q270.9 -17.4 269.9 -17.6zM252 -41.3Q251 -41.2 250.1 -42.5Q249.3 -43.8 248.9 -45.6Q248.5 -47.4 248.9 -49Q249.3 -50.6 250.8 -51Q252 -51.3 254.2 -51.7Q256.3 -52.1 259 -52.5Q261.6 -52.8 264.5 -53Q267.4 -53.2 270 -53.2Q272.7 -53.3 274.8 -53.1Q276.8 -52.8 277.8 -52.3Q279.1 -51.5 279.8 -49.3Q280.5 -47 280.6 -44.1Q280.7 -41.2 280.3 -38.1Q279.9 -35 279.1 -32.6Q278.2 -30 275.5 -29.7Q272.7 -29.3 268.4 -30.8Q267.1 -31.2 266.5 -31.7Q266 -32.2 265.9 -33Q265.8 -33.8 266 -34.7Q266.2 -35.7 266.4 -37Q266.5 -37.9 266.6 -38.8Q266.7 -39.7 266.6 -40.5Q266.5 -41.2 266.1 -41.8Q265.8 -42.3 265.1 -42.3Q262.9 -42.5 259.6 -42.3Q256.3 -42.1 252 -41.3zM265.7 -6.8Q264.2 -6.4 262 -6Q259.9 -5.7 257.7 -5.4Q255.5 -5.2 253.5 -5Q251.6 -4.9 250.5 -4.9Q249.7 -4.9 249.4 -5.4Q249.2 -5.9 249 -6.8Q248.8 -7.8 248.6 -8.7Q248.5 -9.6 248.4 -10.6Q248.3 -12.4 248.8 -13.2Q249.3 -14 250.8 -14.1Q253.8 -14.5 257.3 -14.8Q260.8 -15.2 263.7 -15.8Q265.6 -16.1 266.6 -15.1Q267.5 -14 267.7 -11.8Q267.8 -10.5 267.8 -9.2Q267.8 -8 266.7 -7.2Q266.2 -6.9 265.7 -6.8zM282 -4.2Q282 -4.5 282 -4.7Q282 -5 282.2 -5.1Q282.5 -5.6 282.8 -6.7Q283.3 -7.8 283.6 -9.1Q284 -10.4 284.2 -11.5Q284.5 -12.6 284.5 -13L284.5 -13.3Q284.4 -13.7 284.3 -13.6Q284.1 -13.6 284 -13.5Q283.4 -13.2 283.4 -12.2Q283.3 -11.2 282.6 -9Q282 -6.7 280.9 -4.3Q280.6 -3.5 281.2 -3.7L281.6 -3.8Q281.8 -3.8 282 -4.2zM250.7 -34.3Q250.6 -34.3 250.5 -33.7Q250.5 -33.1 250.6 -33.3L251.6 -33.3Q251.6 -32.9 251.4 -31.8Q251.3 -30.6 251.2 -29.3Q251.1 -28 251 -26.9Q251 -25.8 251.2 -25.7Q251.4 -25.8 251.5 -26.1Q251.6 -26.4 251.8 -26.8Q251.9 -27.2 251.9 -27.8Q252 -28.3 252 -29.2Q252.1 -30.2 252.1 -31.2Q252.1 -32.2 252.1 -33.1Q252.1 -34 252.1 -34.5Q252.1 -34.6 251.9 -34.9Q251.6 -34.8 251.2 -34.6Q250.8 -34.5 250.7 -34.3zM224.2 -32.7Q223.6 -31.9 222.9 -30.9Q222.2 -30 221.8 -29.4Q221.5 -28.8 220.9 -28.2Q220.4 -27.7 221.2 -26.7Q221.8 -27.6 222.8 -29.1Q223.7 -30.5 224.3 -31.4L225 -32.2Q225.1 -32.3 225.1 -32.2L225.5 -32.7L224.2 -32.7z" style="" fill="#000000" id="namepathdata"/></g></g>
              <g class="slogan"><g id="sloganDefaultGroup"><path d="M38 36.8125L38 38.3125L25.6 38.3125L25.6 36.8125L30.299999999999997 36.8125L30.299999999999997 21.2125L31.799999999999997 21.3125L31.799999999999997 26.9125L37 26.9125L37 28.3125L31.799999999999997 28.3125L31.799999999999997 36.8125L38 36.8125zM24.6 26.5125Q24.299999999999997 26.0125 24 25.5125Q23.6 24.9125 23.2 24.3125Q22.7 23.8125 22.3 23.3125Q21.9 22.8125 21.599999999999998 22.5125L22.7 21.5125Q23 21.8125 23.4 22.3125Q23.799999999999997 22.8125 24.299999999999997 23.4125Q24.7 23.9125 25.1 24.4125Q25.4 24.9125 25.7 25.3125L24.6 26.5125zM27.2 35.1125Q27.1 35.2125 26.7 35.6125Q26.2 35.9125 25.799999999999997 36.3125Q25.299999999999997 36.7125 24.799999999999997 37.1125Q24.4 37.5125 24.2 37.7125Q23.9 37.9125 23.7 38.2125Q23.4 38.5125 23.099999999999998 38.7125L22.2 37.6125Q22.599999999999998 37.3125 22.7 37.1125Q22.8 36.8125 22.8 36.4125L22.8 29.2125L20.099999999999998 29.2125L20.099999999999998 27.8125L24.299999999999997 27.8125L24.299999999999997 35.9125Q24.4 35.8125 24.799999999999997 35.5125Q25.1 35.1125 25.5 34.8125Q25.9 34.4125 26.2 34.1125Q26.5 33.8125 26.6 33.7125L27.2 35.1125zM57.400000000000006 36.4125L57.400000000000006 38.0125L40.099999999999994 38.0125L40.099999999999994 36.4125L47.9 36.4125L47.9 24.5125L41.4 24.5125L41.4 22.9125L56.099999999999994 22.9125L56.099999999999994 24.5125L49.599999999999994 24.5125L49.599999999999994 36.4125L57.400000000000006 36.4125zM70.7 25.7125L70.7 28.8125L75.9 28.8125L75.9 30.3125L70.7 30.3125L70.7 33.5125L76.2 33.5125L76.2 35.0125L70.7 35.0125L70.7 39.3125L69.2 39.3125L69.2 25.7125L68.3 25.7125Q67.7 26.7125 67 27.8125Q66.3 28.9125 65.3 30.2125L64.2 29.1125Q65 28.1125 65.7 27.1125Q66.4 26.1125 66.9 25.1125Q67.4 24.2125 67.8 23.2125Q68.2 22.3125 68.6 21.3125L70 21.8125Q69.8 22.4125 69.5 23.0125Q69.3 23.5125 69 24.2125L77 24.2125L77 25.7125L70.7 25.7125zM65.3 22.2125Q64.9 23.0125 64.5 24.0125Q64.1 24.9125 63.599999999999994 26.0125L63.599999999999994 39.3125L62.099999999999994 39.3125L62.099999999999994 28.7125Q61.2 30.1125 60 31.4125L59 30.3125Q59.900000000000006 29.2125 60.7 28.1125Q61.400000000000006 26.9125 62 25.8125Q62.599999999999994 24.7125 63 23.6125Q63.5 22.6125 63.8 21.6125L65.3 22.2125zM96.7 38.8125Q94.8 38.7125 93.3 38.5125Q91.9 38.4125 90.7 38.1125Q89.5 37.9125 88.5 37.6125Q87.60000000000001 37.3125 86.7 36.9125Q85.7 37.7125 84 38.3125Q82.3 38.9125 79.8 39.5125L79.2 38.2125Q81.4 37.7125 82.9 37.2125Q84.4 36.7125 85.3 36.1125Q84.60000000000001 35.6125 83.8 34.9125Q83.1 34.3125 82.2 33.4125L83 32.7125L81.5 32.7125L81.5 25.3125L87.4 25.3125L87.4 23.6125L80 23.6125L80 22.2125L96.3 22.2125L96.3 23.6125L89 23.6125L89 25.3125L94.8 25.3125L94.8 32.7125L88.9 32.7125Q88.8 33.7125 88.5 34.5125Q88.2 35.2125 87.8 35.9125Q88.60000000000001 36.2125 89.5 36.5125Q90.4 36.7125 91.60000000000001 36.9125Q92.7 37.1125 94 37.2125Q95.4 37.3125 97 37.3125L96.7 38.8125zM83 26.6125L83 28.4125L87.4 28.4125L87.4 26.6125L83 26.6125zM89 26.6125L89 28.4125L93.4 28.4125L93.4 26.6125L89 26.6125zM83 31.4125L87.4 31.4125L87.4 31.1125L87.4 29.6125L83 29.6125L83 31.4125zM93.4 31.4125L93.4 29.6125L89 29.6125L89 31.1125L89 31.4125L93.4 31.4125zM83.4 32.7125Q84.10000000000001 33.5125 84.8 34.1125Q85.60000000000001 34.7125 86.4 35.2125Q86.8 34.7125 87 34.1125Q87.3 33.5125 87.4 32.7125L83.4 32.7125zM106.7 34.9125Q106.2 35.0125 105.60000000000001 35.1125Q104.9 35.2125 104.2 35.3125L104.2 39.3125L102.8 39.3125L102.8 35.5125Q101.7 35.7125 100.60000000000001 35.8125Q99.60000000000001 36.0125 98.9 36.1125L98.60000000000001 34.6125Q99.4 34.5125 100.5 34.4125Q101.60000000000001 34.2125 102.8 34.1125L102.8 31.1125L99.5 31.1125L99.5 29.7125Q99.9 28.9125 100.3 27.7125Q100.7 26.5125 101 25.3125L99.10000000000001 25.3125L99.10000000000001 23.8125L101.4 23.8125Q101.60000000000001 23.1125 101.8 22.4125Q102 21.7125 102.10000000000001 21.1125L103.5 21.4125Q103.3 22.0125 103.2 22.6125Q103 23.2125 102.9 23.8125L106.5 23.8125L106.5 25.3125L102.5 25.3125Q102.10000000000001 26.5125 101.7 27.7125Q101.4 28.9125 101 29.7125L102.8 29.7125L102.8 26.2125L104.2 26.3125L104.2 29.7125L106.2 29.7125L106.2 31.1125L104.2 31.1125L104.2 33.9125Q104.9 33.8125 105.5 33.7125Q106.10000000000001 33.6125 106.60000000000001 33.5125L106.7 34.9125zM106.3 29.3125Q108.5 28.2125 110.10000000000001 26.9125Q111.7 25.6125 112.9 24.0125L107.10000000000001 24.0125L107.10000000000001 22.6125L114.8 22.6125L114.8 23.9125Q114.3 24.7125 113.7 25.4125Q113.2 26.1125 112.5 26.7125Q113.10000000000001 27.0125 113.7 27.4125Q114.3 27.7125 114.9 28.1125Q115.5 28.4125 116 28.8125Q116.5 29.1125 116.9 29.4125L116.3 30.8125Q115.9 30.5125 115.3 30.1125Q114.8 29.7125 114.10000000000001 29.2125Q113.5 28.8125 112.8 28.4125Q112.10000000000001 28.0125 111.5 27.7125Q110.5 28.5125 109.4 29.2125Q108.4 30.0125 107.10000000000001 30.6125L106.3 29.3125zM111.9 36.9125L116.60000000000001 36.9125L116.60000000000001 38.4125L105.9 38.4125L105.9 36.9125L110.4 36.9125L110.4 33.0125L107 33.0125L107 31.5125L115.4 31.5125L115.4 33.0125L111.9 33.0125L111.9 36.9125zM124.8 32.5125Q124.7 32.2125 124.4 31.9125Q124.2 31.6125 124 31.2125Q123.7 30.9125 123.4 30.5125Q123.2 30.2125 122.9 29.9125L122.9 39.2125L121.5 39.2125L121.5 29.6125Q121 30.8125 120.4 32.0125Q119.8 33.2125 119.10000000000001 34.2125L118 33.3125Q118.5 32.6125 118.9 31.8125Q119.4 31.0125 119.9 30.1125Q120.4 29.2125 120.8 28.3125Q121.2 27.3125 121.4 26.4125L118.8 26.4125L118.8 25.0125L121.5 25.0125L121.5 21.1125L122.9 21.1125L122.9 25.0125L125.10000000000001 25.0125L125.10000000000001 26.4125L122.9 26.4125L122.9 28.9125L123.3 28.5125Q123.60000000000001 28.7125 123.9 29.1125Q124.3 29.4125 124.60000000000001 29.8125Q125 30.3125 125.3 30.7125Q125.60000000000001 31.1125 125.8 31.4125L124.8 32.5125zM135.5 31.0125Q134.6 29.9125 133.9 28.8125Q133.2 27.8125 132.6 26.7125Q132.1 25.6125 131.6 24.3125Q131.2 23.0125 130.79999999999998 21.5125L132.1 21.2125Q132.79999999999998 24.0125 134 26.1125Q135.1 28.2125 136.79999999999998 29.9125L135.5 31.0125zM124.8 29.2125Q126 27.6125 126.8 25.8125Q127.7 24.0125 128.29999999999998 21.9125L129.6 22.2125Q129 24.5125 128.1 26.5125Q127.10000000000001 28.5125 125.9 30.1125L124.8 29.2125zM132.4 32.0125Q132.79999999999998 32.6125 133.2 33.3125Q133.6 34.1125 134 34.9125Q134.4 35.8125 134.79999999999998 36.7125Q135.2 37.6125 135.5 38.5125L134.2 39.3125Q133.9 38.4125 133.5 37.5125Q133.2 37.5125 132.6 37.5125Q132 37.6125 131.4 37.7125Q130.7 37.7125 130 37.8125Q129.29999999999998 37.9125 128.7 37.9125Q128.1 38.0125 127.60000000000001 38.0125Q127.2 38.1125 127 38.1125Q126.7 38.1125 126.3 38.2125Q125.9 38.2125 125.5 38.3125L125.10000000000001 36.9125Q125.5 36.7125 125.7 36.5125Q125.9 36.4125 126 36.1125Q126.4 35.4125 126.9 34.5125Q127.3 33.5125 127.7 32.5125Q128.2 31.5125 128.6 30.4125Q129 29.3125 129.4 28.2125L130.7 28.6125Q130.4 29.7125 130 30.8125Q129.6 31.9125 129.1 33.0125Q128.7 34.0125 128.2 34.9125Q127.8 35.8125 127.4 36.6125Q127.7 36.5125 128.4 36.5125Q129.1 36.4125 129.9 36.4125Q130.79999999999998 36.3125 131.6 36.2125Q132.4 36.1125 132.9 36.1125Q132.5 35.0125 132 34.1125Q131.6 33.2125 131.2 32.5125L132.4 32.0125zM140 40.0125Q140.4 39.4125 140.7 38.7125Q141.1 38.0125 141.29999999999998 37.3125Q141.6 36.6125 141.7 36.0125Q141.9 35.3125 141.9 34.8125L143.5 34.8125Q143.5 35.4125 143.29999999999998 36.1125Q143.1 36.9125 142.79999999999998 37.5125Q142.5 38.3125 142.2 38.9125Q141.79999999999998 39.5125 141.4 40.0125L140 40.0125zM175.79999999999998 36.8125L175.79999999999998 38.3125L163.29999999999998 38.3125L163.29999999999998 36.8125L168 36.8125L168 21.2125L169.5 21.3125L169.5 26.9125L174.79999999999998 26.9125L174.79999999999998 28.3125L169.5 28.3125L169.5 36.8125L175.79999999999998 36.8125zM162.29999999999998 26.5125Q162.1 26.0125 161.7 25.5125Q161.29999999999998 24.9125 160.89999999999998 24.3125Q160.5 23.8125 160.1 23.3125Q159.7 22.8125 159.39999999999998 22.5125L160.39999999999998 21.5125Q160.79999999999998 21.8125 161.2 22.3125Q161.6 22.8125 162 23.4125Q162.39999999999998 23.9125 162.79999999999998 24.4125Q163.2 24.9125 163.39999999999998 25.3125L162.29999999999998 26.5125zM165 35.1125Q164.79999999999998 35.2125 164.39999999999998 35.6125Q164 35.9125 163.5 36.3125Q163 36.7125 162.6 37.1125Q162.1 37.5125 161.89999999999998 37.7125Q161.7 37.9125 161.39999999999998 38.2125Q161.1 38.5125 160.89999999999998 38.7125L160 37.6125Q160.29999999999998 37.3125 160.39999999999998 37.1125Q160.6 36.8125 160.6 36.4125L160.6 29.2125L157.89999999999998 29.2125L157.89999999999998 27.8125L162 27.8125L162 35.9125Q162.2 35.8125 162.5 35.5125Q162.89999999999998 35.1125 163.29999999999998 34.8125Q163.7 34.4125 164 34.1125Q164.29999999999998 33.8125 164.39999999999998 33.7125L165 35.1125zM195.2 36.8125L195.2 38.3125L178.29999999999998 38.3125L178.29999999999998 36.8125L186.1 36.8125L186.1 32.1125L180 32.1125L180 30.7125L186.1 30.7125L186.1 26.6125L181.29999999999998 26.6125Q180.79999999999998 27.6125 180.2 28.6125Q179.7 29.5125 179.1 30.5125L177.7 29.5125Q179 27.8125 179.89999999999998 26.0125Q180.89999999999998 24.2125 181.5 22.0125L182.89999999999998 22.4125Q182.7 23.1125 182.39999999999998 23.8125Q182.2 24.5125 181.89999999999998 25.1125L186.1 25.1125L186.1 21.2125L187.7 21.3125L187.7 25.1125L194.39999999999998 25.1125L194.39999999999998 26.6125L187.7 26.6125L187.7 30.7125L193.7 30.7125L193.7 32.1125L187.7 32.1125L187.7 36.8125L195.2 36.8125zM201.7 26.0125Q201.39999999999998 25.6125 200.89999999999998 25.2125Q200.39999999999998 24.8125 199.89999999999998 24.4125Q199.39999999999998 24.0125 198.89999999999998 23.6125Q198.39999999999998 23.3125 198.1 23.1125L198.89999999999998 21.9125Q199.29999999999998 22.1125 199.79999999999998 22.5125Q200.29999999999998 22.8125 200.79999999999998 23.2125Q201.29999999999998 23.5125 201.79999999999998 23.9125Q202.2 24.3125 202.5 24.6125L201.7 26.0125zM209.2 28.7125L209.2 31.7125L213.29999999999998 31.7125L213.29999999999998 39.4125L211.79999999999998 39.4125L211.79999999999998 38.3125L205.2 38.3125L205.2 39.4125L203.7 39.4125L203.7 31.7125L207.7 31.7125L207.7 28.7125L202.5 28.7125L202.5 27.3125L207.7 27.3125L207.7 24.2125Q206.39999999999998 24.3125 205.29999999999998 24.4125Q204.1 24.4125 203.2 24.5125L203 23.1125Q204.1 23.0125 205.5 22.9125Q207 22.8125 208.39999999999998 22.7125Q209.89999999999998 22.6125 211.2 22.4125Q212.6 22.2125 213.6 22.1125L213.79999999999998 23.5125Q212.89999999999998 23.6125 211.7 23.8125Q210.5 23.9125 209.2 24.0125L209.2 27.3125L215.1 27.3125L215.1 28.7125L209.2 28.7125zM198 26.4125Q198.39999999999998 26.7125 198.89999999999998 27.1125Q199.39999999999998 27.4125 200 27.8125Q200.5 28.2125 201 28.6125Q201.5 29.0125 201.79999999999998 29.3125L201 30.8125Q200.6 30.4125 200.1 30.0125Q199.6 29.5125 199.1 29.1125Q198.5 28.7125 198 28.3125Q197.5 27.9125 197.1 27.6125L198 26.4125zM201.1 32.1125L201.79999999999998 32.4125Q201.7 33.1125 201.39999999999998 34.0125Q201.1 34.9125 200.7 35.8125Q200.39999999999998 36.7125 200 37.6125Q199.7 38.5125 199.39999999999998 39.0125L197.89999999999998 38.5125Q198.2 38.0125 198.6 37.1125Q199 36.2125 199.29999999999998 35.3125Q199.7 34.4125 200 33.5125Q200.29999999999998 32.5125 200.39999999999998 31.9125L201.1 32.1125zM211.79999999999998 33.1125L205.2 33.1125L205.2 36.8125L211.79999999999998 36.8125L211.79999999999998 33.1125zM234.39999999999998 38.8125Q232.6 38.7125 231.1 38.5125Q229.6 38.4125 228.39999999999998 38.1125Q227.2 37.9125 226.29999999999998 37.6125Q225.29999999999998 37.3125 224.5 36.9125Q223.39999999999998 37.7125 221.7 38.3125Q220.1 38.9125 217.6 39.5125L217 38.2125Q219.2 37.7125 220.7 37.2125Q222.1 36.7125 223.1 36.1125Q222.29999999999998 35.6125 221.6 34.9125Q220.79999999999998 34.3125 220 33.4125L220.79999999999998 32.7125L219.29999999999998 32.7125L219.29999999999998 25.3125L225.2 25.3125L225.2 23.6125L217.79999999999998 23.6125L217.79999999999998 22.2125L234.1 22.2125L234.1 23.6125L226.7 23.6125L226.7 25.3125L232.6 25.3125L232.6 32.7125L226.6 32.7125Q226.5 33.7125 226.29999999999998 34.5125Q226 35.2125 225.5 35.9125Q226.29999999999998 36.2125 227.2 36.5125Q228.2 36.7125 229.29999999999998 36.9125Q230.5 37.1125 231.79999999999998 37.2125Q233.2 37.3125 234.79999999999998 37.3125L234.39999999999998 38.8125zM220.7 26.6125L220.7 28.4125L225.2 28.4125L225.2 26.6125L220.7 26.6125zM226.7 26.6125L226.7 28.4125L231.1 28.4125L231.1 26.6125L226.7 26.6125zM220.7 31.4125L225.2 31.4125L225.2 31.1125L225.2 29.6125L220.7 29.6125L220.7 31.4125zM231.1 31.4125L231.1 29.6125L226.7 29.6125L226.7 31.1125L226.7 31.4125L231.1 31.4125zM221.1 32.7125Q221.89999999999998 33.5125 222.6 34.1125Q223.29999999999998 34.7125 224.2 35.2125Q224.6 34.7125 224.79999999999998 34.1125Q225 33.5125 225.1 32.7125L221.1 32.7125zM254.1 30.9125L236.7 30.9125L236.7 29.6125L244.7 29.6125L244.7 27.9125L238.2 27.9125L238.2 26.7125L244.7 26.7125L244.7 24.9125L237.6 24.9125L237.6 23.7125L242.1 23.7125Q241.7 23.2125 241.2 22.7125Q240.79999999999998 22.2125 240.39999999999998 21.8125L241.39999999999998 21.0125Q241.6 21.2125 241.89999999999998 21.4125Q242.2 21.7125 242.5 22.0125Q242.7 22.3125 243 22.6125Q243.2 22.8125 243.39999999999998 23.1125L242.79999999999998 23.7125L246.89999999999998 23.7125Q247.2 23.4125 247.5 23.0125Q247.79999999999998 22.6125 248.1 22.3125Q248.39999999999998 21.9125 248.7 21.5125Q249 21.1125 249.1 20.8125L250.29999999999998 21.6125Q250.1 22.0125 249.6 22.6125Q249.2 23.1125 248.79999999999998 23.7125L253.2 23.7125L253.2 24.9125L246.2 24.9125L246.2 26.7125L252.6 26.7125L252.6 27.9125L246.2 27.9125L246.2 29.6125L254.1 29.6125L254.1 30.9125zM246.39999999999998 34.4125Q247.29999999999998 35.5125 249.2 36.5125Q251.1 37.5125 254.39999999999998 38.0125L253.79999999999998 39.5125Q250.5 38.8125 248.5 37.7125Q246.39999999999998 36.7125 245.39999999999998 35.4125Q245 36.0125 244.29999999999998 36.6125Q243.6 37.2125 242.5 37.7125Q241.5 38.2125 240.1 38.7125Q238.7 39.1125 236.89999999999998 39.5125L236.29999999999998 38.0125Q238.1 37.7125 239.5 37.3125Q240.79999999999998 36.9125 241.79999999999998 36.4125Q242.7 35.9125 243.29999999999998 35.4125Q243.89999999999998 34.9125 244.2 34.4125L237.39999999999998 34.4125L237.39999999999998 33.1125L244.6 33.1125Q244.6 32.9125 244.6 32.7125Q244.6 32.5125 244.6 32.2125Q244.6 32.0125 244.6 31.8125Q244.6 31.6125 244.6 31.4125L246.2 31.5125Q246.2 31.6125 246.2 31.8125Q246.2 32.0125 246.2 32.2125Q246.2 32.5125 246.2 32.7125Q246.2 32.9125 246.2 33.1125L253.39999999999998 33.1125L253.39999999999998 34.4125L246.39999999999998 34.4125zM262 34.0125Q262.7 34.6125 263.4 35.3125Q264.1 35.9125 264.6 36.4125L263.6 37.9125Q263.1 37.3125 262.5 36.7125Q261.9 36.0125 261.1 35.4125Q260.4 36.4125 259.5 37.3125Q258.6 38.2125 257.3 39.3125L256.1 38.2125Q257.4 37.2125 258.4 36.3125Q259.3 35.4125 260 34.4125Q259.3 33.7125 258.6 33.2125Q257.9 32.6125 257.4 32.3125Q257.7 30.9125 258 29.4125Q258.3 27.9125 258.6 26.3125L256.5 26.3125L256.5 24.8125L258.8 24.8125Q258.9 23.9125 259 23.0125Q259.1 22.1125 259.2 21.2125L260.6 21.3125Q260.5 22.3125 260.4 23.1125Q260.3 24.0125 260.2 24.8125L263.8 24.8125L263.8 26.2125Q263.5 28.9125 263.1 30.7125Q262.7 32.6125 262 34.0125zM274.1 31.0125L269.6 31.0125L269.6 36.7125Q269.6 37.3125 269.5 37.8125Q269.4 38.2125 269.1 38.5125Q268.8 38.8125 268.2 38.9125Q267.7 39.0125 266.9 39.1125L265.8 39.2125L265.4 37.6125L266.6 37.5125Q267.1 37.5125 267.4 37.4125Q267.7 37.3125 267.9 37.2125Q268 37.0125 268.1 36.8125Q268.1 36.5125 268.1 36.1125L268.1 31.0125L263.9 31.0125L263.9 29.5125L268.1 29.5125L268.1 27.1125Q269 26.4125 269.8 25.7125Q270.6 24.9125 271.4 24.1125L264.7 24.1125L264.7 22.6125L273.3 22.6125L273.3 24.1125Q272.4 25.1125 271.5 26.0125Q270.7 26.8125 269.6 27.6125L269.6 29.5125L274.1 29.5125L274.1 31.0125zM258.9 31.6125Q259.3 31.9125 259.8 32.2125Q260.3 32.6125 260.8 33.0125Q261.4 31.8125 261.8 30.2125Q262.2 28.6125 262.5 26.3125L260 26.3125Q259.8 27.7125 259.5 29.0125Q259.3 30.3125 258.9 31.6125z" style="" fill="#7f7f7f" id="sloganpathdata"/></g></g>
            </g>
            <g class="border">
            </g>
          </g>
          
          <defs id="defs">
            <mask xmlns="http://www.w3.org/2000/svg" id="mask">
                <rect id="showAll" fill="white" x="37.386213235294136" y="-286.0334558823529" width="217.62757352941173" height="217.62757352941173"/>
                <rect id="hideNameBg" fill="black" x="0" y="0" width="0" height="0" stroke-width="2" stroke="black"/>
                <rect id="hideSloganBg" fill="black" x="0" y="0" width="0" height="0" stroke-width="2" stroke="black"/>
            <path d="M11.9 -35.4Q11.3 -35.3 10.7 -35.4Q10 -35.5 9.4 -35.6Q8.3 -35.6 8.3 -37.6Q8.4 -38.5 8.4 -39.3Q8.4 -40.2 8.4 -41.1Q8.3 -43.8 9.9 -44.3Q10.1 -45 10.5 -45.7Q10.9 -46.5 11.7 -47.7Q12.4 -48.8 13.1 -50Q13.9 -51.3 14.6 -52.4Q15.3 -53.6 15.8 -54.4Q15.9 -54.5 16.4 -54.4Q16.9 -54.4 16.6 -53.6Q16.4 -53.3 16 -52.5Q15.5 -51.6 15.1 -50.8Q14.6 -49.9 14.2 -49.2Q13.8 -48.5 13.8 -48.5Q13.6 -48.2 14.1 -48.1Q14.5 -48 14.8 -48.3Q14.8 -48.4 15.3 -49.4Q15.8 -50.3 16.5 -51.5Q17.1 -52.7 17.7 -53.8Q18.2 -54.8 18.4 -55Q18.2 -54.9 18 -55Q17.7 -55.1 17.4 -55.2Q17.1 -55.4 17 -55.7Q16.8 -55.9 16.9 -56.1L16.9 -56.2Q17.9 -58.3 19.8 -58.4Q21.6 -58.5 24 -56.9Q24.8 -56.4 25.5 -55.9Q26.2 -55.4 26.7 -54.9Q27.3 -54.3 27.6 -53.6Q27.9 -52.9 27.9 -52Q27.9 -51.2 27.6 -50.5Q26.8 -48.5 26 -47.4Q25.1 -46.2 24.2 -45.2L28.4 -45.6Q27.9 -47.7 28.7 -48.9Q29.6 -50.1 31.5 -50.5Q32.6 -50.8 33.7 -50.8Q34.8 -50.9 35.6 -49.6Q35.7 -49.3 35.9 -49Q36 -48.8 36.1 -48.5Q36.7 -45.9 37.3 -43.8Q37.8 -42 38.2 -40.4Q38.6 -38.8 38.7 -38.4Q38.7 -37.5 38.1 -36.9Q37.5 -36.2 36.7 -36.1Q35.2 -35.9 33.7 -35.6Q32.5 -35.4 31.8 -35.6Q31.1 -35.9 30.7 -36.7Q29.4 -36.5 26.7 -36.2Q24 -36 21.2 -35.8Q18.3 -35.6 15.7 -35.5Q13.1 -35.4 11.9 -35.4zM68.1 -20.7Q68.7 -16.6 67.2 -14.1Q65.8 -11.5 61.3 -10.3Q60.3 -9.9 58 -9.7Q55.7 -9.4 53.1 -9.3Q50.5 -9.2 48.1 -9.4Q45.7 -9.6 44.4 -10.2Q43.8 -10.4 43.3 -11.2Q42.8 -12 42.7 -12.8L42.3 -15.5Q42.2 -16.3 42.1 -17.8Q42 -19.3 41.8 -21Q41.7 -22.7 41.6 -24.3Q41.5 -26 41.5 -27.3Q41.5 -27.4 41.7 -27.6Q41.8 -27.6 41.9 -27.5Q42 -27.5 42.1 -27.5Q42 -25.8 42.4 -23.9Q42.8 -22.1 43.1 -21.5Q43.3 -21.2 43.7 -21.3Q44.1 -21.5 44.1 -21.8L43 -28.4Q43.1 -28.5 42.5 -28.5Q42 -28.4 42 -28.3L41.9 -28.3Q41.9 -28.7 41.9 -29Q41.9 -29.4 42 -29.7Q42 -30.2 42.3 -30.7Q43.1 -31.7 44.7 -32.1Q46.3 -32.5 47.7 -32.5Q50.2 -32.4 52 -31.3Q53.9 -30.2 53.7 -28.7L53.4 -26.6Q54.5 -27.1 55.5 -27.6Q56.6 -28.1 57.5 -28.4Q58.4 -28.9 59.3 -29.3Q59.9 -29.5 60.3 -29.5Q61.5 -29.5 61.9 -28.8Q62.4 -28 62.8 -27.1Q64.2 -24 61.3 -22.8L52.9 -19.1Q52.9 -18.5 52.9 -18Q52.9 -17.4 53.1 -17Q53.1 -16.6 54 -16.3Q54.8 -16.1 55.8 -16.2Q56.9 -16.3 57.8 -16.5Q58.8 -16.8 59 -17.4Q59.2 -17.8 59.2 -18.8Q59.2 -19.8 59 -20.6Q58.8 -21.5 60.2 -22.1Q61.5 -22.8 63.2 -22.9Q64.9 -23 66.4 -22.5Q67.9 -22 68.1 -20.7zM66.2 -43.1Q66.5 -41 66.2 -39.5Q66 -38.1 65.1 -37.1Q64.2 -36.1 62.7 -35.4Q61.3 -34.7 59 -34.1Q58 -33.8 55.7 -33.7Q53.4 -33.5 50.8 -33.5Q48.2 -33.5 45.8 -33.8Q43.3 -34.1 42 -34.7Q41.4 -35 41 -35.8Q40.6 -36.6 40.5 -37.4L40.2 -40Q40 -41.8 40 -44.2Q40 -46.7 40 -49.2Q40 -49.3 40.1 -49.3Q40.2 -49.4 40.2 -49.5Q40.4 -49.4 40.7 -49.4Q40.6 -48.5 40.7 -47.6Q40.8 -46.7 40.9 -45.8Q41 -45 41.1 -44.3Q41.2 -43.7 41.4 -43.4Q41.5 -43.1 42 -43.2Q42.4 -43.3 42.4 -43.6L42 -46.9Q41.8 -48.2 41.7 -49.2Q41.5 -50.2 41.5 -50.2Q41.6 -50.4 41.1 -50.4Q40.5 -50.3 40.5 -50.2L40.5 -50.2Q40.5 -50.5 40.5 -50.9Q40.5 -51.3 40.5 -51.6Q40.6 -52 41 -52.6Q41.8 -53.6 43.4 -53.9Q45 -54.2 46.4 -54.1Q48.5 -53.9 50.2 -53Q52 -52.1 52.3 -50.8Q53.4 -51.1 54.5 -51.5Q55.6 -51.8 56.5 -52.2Q57.5 -52.5 58.4 -52.8Q59 -53 59.3 -52.9Q60.5 -52.8 60.8 -52Q61.2 -51.3 61.6 -50.3Q62.1 -48.8 61.6 -47.7Q61.1 -46.7 59.6 -46.2L51 -43.4Q50.8 -42.2 51 -41.1Q51 -40.7 51.9 -40.5Q52.7 -40.2 53.8 -40.2Q54.8 -40.2 55.7 -40.5Q56.7 -40.8 57 -41.3Q57.2 -41.8 57.3 -42.1Q57.4 -42.5 57.2 -43.3Q57.1 -44.2 58.4 -44.7Q59.8 -45.3 61.5 -45.4Q63.1 -45.4 64.6 -44.9Q66.1 -44.4 66.2 -43.1zM22.5 -12.8Q22.2 -12.6 21.8 -12.6Q21.5 -12.5 21.2 -12.5L20.9 -10.5Q20.9 -10 20.5 -9.6Q20.2 -9.4 19.9 -9.3Q19.5 -9.1 19.2 -9.1Q18.9 -9.1 18.3 -9.1Q17.1 -9.1 16 -9.1Q14.9 -9 13.8 -9Q11.5 -8.9 10.5 -9.6Q9.6 -10.2 9.5 -11.7Q9.5 -12.2 9.4 -13.5Q9.2 -14.7 9 -16.3Q8.8 -17.9 8.6 -19.8Q8.4 -21.6 8.2 -23.2Q8 -24.8 7.8 -26.1Q7.7 -27.4 7.7 -27.9Q7.7 -28 8.2 -28.2Q8.6 -28.4 8.7 -27.7Q8.8 -27.4 8.8 -26.4Q8.9 -25.3 8.9 -24.2Q9 -23 9 -22Q9.1 -21.1 9.1 -21Q9.1 -20.7 9.5 -20.9Q9.9 -21 9.9 -21.4Q9.9 -21.5 9.9 -22.8Q9.8 -24 9.7 -25.6Q9.6 -27.4 9.5 -29.6Q9.4 -29.3 8.6 -29.2Q7.8 -29.2 7.7 -29.5Q7.4 -31.5 8.9 -32.4Q10.4 -33.4 13.2 -33.5Q14.8 -33.5 16.7 -33.4Q18.5 -33.3 19.4 -32Q19.5 -31.8 19.7 -31.5Q19.8 -31.2 19.9 -30.9Q20.1 -29.7 20.2 -28.3Q20.4 -26.9 20.5 -25.2Q21.4 -25.2 21.9 -25.2Q22.5 -25.2 23 -25.2Q23.5 -25.2 24.2 -25.2Q24.8 -25.2 25.9 -25.2Q28.8 -25.3 28.8 -22.7Q28.8 -21.9 28.7 -21.2Q28.7 -20.6 27.6 -20.2Q27.2 -20 26.8 -20Q25.6 -19.9 25 -19.9Q24.3 -19.9 23.8 -19.9Q23.3 -19.9 22.8 -20Q22.2 -20 21 -20L20.9 -20Q20.9 -19.4 20.9 -18.9Q21 -18.3 21 -17.7Q21.7 -17.9 22.1 -18Q22.6 -18.1 23.1 -18.2Q23.5 -18.4 24.1 -18.5Q24.7 -18.7 25.7 -19Q28.4 -19.7 29.2 -17.2Q29.4 -16.5 29.5 -15.8Q29.6 -15.1 28.7 -14.5L28 -14.2Q26.9 -13.8 26.3 -13.6Q25.7 -13.5 25.2 -13.4Q24.8 -13.2 24.2 -13.1Q23.6 -13 22.5 -12.8zM23.1 -26.4Q22 -26.2 21.6 -27Q21.2 -27.9 20.9 -29.3Q20.5 -30.6 21 -31.6Q21.4 -32.5 23.5 -32.9Q25.1 -33.1 26.9 -33.3Q28.8 -33.4 30.7 -33.5Q32.5 -33.5 34.3 -33.4Q36.1 -33.3 37.3 -33Q38.3 -32.7 38.9 -31.3Q39.6 -30 39.8 -28.1Q40 -26.1 40.1 -24.2Q40.2 -22.4 40.1 -20.4Q40 -18.4 39.6 -16.1Q39.2 -13.8 38.6 -10.9Q38.2 -9.1 36.6 -8.9Q35 -8.6 31.5 -9.6Q31.3 -9.7 30.9 -9.8Q30.5 -9.9 30.2 -10Q29.9 -10.2 29.7 -10.5Q29.5 -10.8 29.5 -11.4Q29.9 -15.7 30.7 -18.9Q31.5 -22.1 31.8 -23.5Q32 -25.3 31.3 -26.1Q30.6 -26.9 29.3 -27Q27.9 -27.2 26.3 -27Q24.6 -26.7 23.1 -26.4zM12.5 -7.1Q13.2 -8.3 14.9 -8.5Q16.6 -8.8 18.2 -8.3Q19.9 -7.9 21.3 -6.9Q22.6 -5.9 22.7 -4.5Q22.8 -3 22.5 -1.7Q22.2 -0.4 21.9 1Q21.7 1.7 21.5 2.7Q21.2 3.7 20.9 4.6Q20.5 5.6 19.9 6.5Q19.2 7.3 18.1 7.8Q17.3 8.3 15.7 8Q14.2 7.6 12.5 6.9Q10.9 6.2 9.4 5.2Q7.8 4.2 7 3.4Q6.2 2.7 6.2 2Q6.2 1.3 6.7 0.5Q7.7 -1.1 9.3 -3Q10.9 -4.8 12.5 -7.1zM63.6 -7.1Q64.4 -5.1 65.2 -3.5Q65.7 -2.2 66.2 -0.9Q66.8 0.4 66.9 0.8Q67.4 2.5 65.5 3Q64.7 3.3 63.2 3.8Q61.8 4.4 61 4.8Q59.3 5.5 58.4 5Q57.5 4.5 56.7 2.9L54.4 -2.4Q53.4 -4.4 54 -5.7Q54.6 -7 58 -8.2Q59.2 -8.6 60.4 -9Q61.6 -9.3 62.9 -8.1Q63.4 -7.6 63.6 -7.1zM49 -5.2Q49.6 -3.2 50.1 -1.6Q50.5 -0.1 50.9 1.2Q51.2 2.5 51.3 3Q51.6 4.7 49.8 5Q48.9 5.2 48 5.4Q47.2 5.6 46.3 5.8Q44.6 6.3 43.7 5.8Q42.8 5.2 42.3 3.5L40.5 -1.4Q39.7 -3.6 40.6 -5Q41.5 -6.3 43.6 -6.9Q44.9 -7.3 46.1 -7.5Q47.3 -7.7 48.3 -6.4Q48.5 -6.1 48.7 -5.9Q48.9 -5.6 49 -5.2zM34.7 -4.8Q35.5 -3 36.1 -1.3Q36.7 0.1 37.2 1.4Q37.7 2.7 37.8 3.2Q38.3 4.9 36.4 5.3Q35.6 5.6 34.7 5.9Q33.8 6.1 33 6.5Q31.4 7.1 30.4 6.7Q29.5 6.2 28.8 4.5L26.6 -0.2Q24.8 -4.3 29.2 -6Q30.4 -6.5 31.5 -6.8Q32.7 -7.1 33.9 -5.9Q34.1 -5.6 34.3 -5.4Q34.6 -5.1 34.7 -4.8zM12.1 -1.8Q12.9 -2.8 13.6 -3.8Q14.3 -4.8 15 -5.8L15.3 -6.1Q15.5 -6.5 15.3 -6.6Q15.2 -6.6 15 -6.6Q14.3 -6.6 13.5 -5.4Q12.7 -4.4 11.9 -3.3Q11.2 -2.3 10.4 -1.3Q9.7 -0.4 10.2 -0.4L10.7 -0.4Q10.9 -0.2 11.3 -0.8L12.1 -1.8zM112.8 2.9L112.1 3.1Q111.8 3.1 111.6 3.1Q111.3 3.1 111 3Q109.7 2.9 108.7 2.9Q107.8 3 106.4 3Q103.8 2.8 103 1.9Q102.2 1 102 -0.9Q102 -1.6 101.8 -3.2Q101.7 -4.9 101.6 -7.1Q101.5 -9.4 101.3 -11.8Q101.1 -14.2 101 -16.5Q100.9 -18.7 100.8 -20.4Q100.7 -22.1 100.7 -22.8Q100.7 -22.8 100.8 -23Q100.9 -23.1 101.2 -23.1Q101.4 -23.2 101.5 -23Q101.7 -22.9 101.8 -22.5Q101.9 -22.1 102 -21.3Q102.2 -20.6 102.3 -19.8Q102.5 -19.1 102.7 -18.5Q102.8 -17.9 102.8 -17.8Q102.8 -17.4 103.3 -17.6Q103.8 -17.7 103.8 -18.2Q103.8 -18.3 103.6 -19.3Q103.5 -20.4 103.3 -21.6Q103 -23 102.7 -24.8Q102.6 -24.6 102 -24.5Q101.5 -24.3 101.1 -24.5Q100.9 -23.4 100.2 -22.4Q99.6 -21.6 98.9 -21.1Q98.3 -20.7 97.8 -20.4Q97.4 -20 97 -19.7Q97.5 -13 97.1 -7.3Q96.8 -1.6 95.3 1.8Q94.7 3 93.1 3.3Q91.6 3.8 89.8 3.2L86 2.2Q84.9 1.9 83.9 1.3Q82.9 0.7 82.3 -0.1Q81.6 -0.9 81.3 -1.9Q81 -2.9 81.4 -4Q82.4 -6.2 82.9 -10.8Q82.1 -10.4 81.4 -10Q80.7 -9.6 80.3 -9.4Q79.1 -8.9 78.3 -9.1Q77.6 -9.4 77.1 -10.4Q76.7 -11.4 76.2 -12.3Q75.7 -13.2 75.1 -14.1Q72.9 -17.7 76.9 -20L82.6 -23.5Q82.5 -24.8 82.2 -26.4Q81.3 -26.1 80.3 -25.7Q79.4 -25.4 78.5 -25.1Q76.2 -24.1 75.2 -26.4Q74.9 -27.4 74.4 -28.4Q73.9 -29.4 73.4 -30.4Q72.4 -32.4 73 -33.7Q73.5 -34.9 75.8 -36.1Q77.6 -36.9 79.1 -37.8Q78.9 -38.3 78.7 -38.8Q78.5 -39.2 78.3 -39.8Q77.6 -41.1 77.6 -42.6Q77.7 -44.1 78.3 -45.5Q79 -46.8 80.2 -47.8Q81.4 -48.8 83.1 -49Q84.4 -49.2 85.5 -49.4Q86.6 -49.5 87.5 -49.4Q88.5 -49.3 89.3 -48.9Q90.2 -48.5 91 -47.6Q91.7 -46.8 92 -46L92.2 -45.2Q94.3 -45.8 95.8 -45Q97.3 -44.1 98.3 -42.3Q98.6 -41.5 99 -40.8Q99.4 -40.1 99.6 -39.4Q99.7 -38.7 99.5 -37.9Q99.3 -37.1 98.5 -36.2Q98.1 -35.9 97.8 -35.5Q97.4 -35.2 97.1 -35L95 -33.8L95.6 -30.8Q96.8 -30.8 97.8 -30Q98.8 -29.3 99.6 -28.1Q99.8 -27.6 100.1 -27.2Q100.4 -26.8 100.6 -26.4Q100.9 -28.1 102.5 -28.9Q104.2 -29.7 106.9 -29.6Q107.9 -29.6 108.6 -29.5Q109.4 -29.5 109.9 -29.2Q110.5 -29 111 -28.5Q111.5 -28.1 112 -27.2Q112.2 -26.9 112.3 -26.5Q112.5 -26.1 112.6 -25.8Q112.9 -24.1 113.1 -21.8Q113.4 -19.6 113.5 -17.1Q114.3 -17.1 115.2 -17.1Q116.1 -17.1 117 -17.1Q117 -18.3 117 -19.3Q116.9 -20.3 116.9 -21.2L116.6 -21.2Q115.5 -21 114.6 -22Q113.8 -23 113.4 -24.8Q113.3 -25.6 113.4 -26.6Q113.5 -27.5 114 -28.3Q114.5 -29.2 115.3 -29.8Q116.1 -30.4 117.3 -30.6Q118.9 -30.8 121.6 -31Q124.3 -31.2 127.3 -31.3Q130.3 -31.3 132.9 -31.2Q135.6 -31.1 136.9 -30.7Q137.4 -30.5 138.1 -30.1Q138.8 -29.7 139.4 -29.2Q140 -28.6 140.5 -27.7Q140.9 -26.8 141 -25.6Q141 -24.3 141.1 -22.1Q141.1 -19.9 141.1 -17.4Q141.1 -14.9 141 -12.2Q141 -9.4 140.8 -7Q140.7 -4.6 140.4 -2.7Q140.2 -0.7 139.8 0.2L139.2 1.4Q139 2.5 138.1 3Q137.7 3.2 137.3 3.2Q136.5 3.2 134.6 3.3Q132.8 3.3 130.3 3.3Q127.9 3.3 125.3 3.3Q122.6 3.2 120.2 3.2Q117.9 3.2 116 3.1Q114.1 3.1 113.4 3L112.8 2.9zM115.9 -36.6Q115.6 -36.5 115.3 -36.5Q115.1 -36.4 114.8 -36.4Q114.8 -32.7 110.8 -32.5Q109.6 -32.4 108.5 -32.5Q107.4 -32.6 106.7 -34.1Q106.6 -34.4 106.5 -34.7Q106.3 -35 106.3 -35.4L106.2 -36.2Q105.2 -36.2 104.1 -36.4Q103.1 -36.6 102.1 -36.8Q99.9 -37.1 100.1 -40Q100.3 -42.7 100.3 -45.5Q100.2 -48.2 101.2 -49.3Q102.2 -50.4 104.5 -50.4Q104.8 -50.4 105.1 -50.4Q105.4 -50.3 105.8 -50.3Q105.8 -50.5 105.8 -50.7Q105.8 -50.9 105.8 -51Q105.9 -52.8 107.7 -52.7Q108.5 -52.7 109.4 -52.7Q110.2 -52.6 111 -52.7Q112.3 -52.8 113 -52.3Q113.7 -51.9 114 -50.8L114.1 -50.8Q117.1 -51 118.4 -49.2Q119.8 -47.4 119.8 -43.9Q119.8 -42.9 119.8 -41.9Q119.9 -40.9 119.7 -40Q119.5 -39.1 119 -38.4Q118.5 -37.7 117.6 -37.2Q116.8 -36.7 115.9 -36.6zM136 -37.4Q136.1 -35.6 135.1 -34.7Q134.1 -33.8 132.3 -33.7Q131.7 -33.6 131.1 -33.6Q130.5 -33.5 130 -33.7Q129.5 -33.8 129.1 -34.1Q128.7 -34.4 128.4 -35.1L128 -36.4Q127.9 -36.6 127.9 -37.2Q126.9 -37.2 126 -37.4Q125 -37.6 124 -37.7Q121.9 -38 122.1 -40.8Q122.2 -42.1 122.2 -43.4Q122.3 -44.7 122.3 -46Q122.3 -48.6 123.2 -49.6Q124.1 -50.7 126.3 -50.7Q126.6 -50.7 126.9 -50.6Q127.2 -50.6 127.5 -50.6Q127.6 -50.8 127.6 -51.3Q127.7 -53 129.3 -52.8Q130.9 -52.8 132.5 -52.8Q134.8 -52.9 135.2 -51L135.4 -51Q138.2 -51.2 139.5 -49.5Q140.8 -47.7 140.8 -44.5Q140.8 -43.5 140.8 -42.5Q140.8 -41.6 140.6 -40.8Q140.5 -40 140 -39.2Q139.6 -38.5 138.7 -38.1Q138 -37.7 137.1 -37.6L136 -37.4zM129.6 -6Q129.6 -7.1 129.6 -8.2Q129.5 -9.3 129.5 -10.4L126.2 -10.4Q126.2 -9.1 126.2 -8Q126.1 -6.9 126.1 -6L129.6 -6zM129.4 -17.1Q129.3 -17.7 129.3 -18.2Q129.3 -18.6 129.3 -19Q129.2 -20 129.2 -20.8Q129.1 -21.5 128.1 -21.8Q127.9 -21.8 127.3 -21.8Q126.6 -21.8 125.9 -21.8L126.1 -17.1L129.4 -17.1zM114.1 -6.2Q114.7 -6.2 115.5 -6.2Q116.3 -6.1 117.1 -6.1L117.1 -10.3L113.9 -10.3L114.1 -6.2zM80.6 -20.7Q79.3 -19.9 78.2 -19.1Q77 -18.4 75.8 -17.5L75.4 -17.2Q75 -16.8 75.2 -16.7Q75.3 -16.6 75.5 -16.6Q76.4 -16.3 77.8 -17.4L82.7 -20.6Q82.8 -20.6 82.8 -20.6Q82.8 -20.7 82.9 -20.7Q82.9 -21 82.8 -21.2Q82.8 -21.4 82.8 -21.6Q82.7 -21.6 82.7 -21.7Q82.5 -21.9 81.9 -21.5L80.6 -20.7zM201.7 -4.5Q202.3 -5.7 202.5 -6.8Q202.7 -7.8 202.8 -9.4Q202.8 -10.3 203.6 -10.9Q204.4 -11.5 205.6 -11.7Q206.9 -12 208.3 -11.8Q209.7 -11.7 211 -11.2Q212.3 -10.7 213.1 -9.8Q213.9 -8.9 214 -7.7Q214.1 -1.5 211.1 2Q208 5.5 201 6.8Q199.5 7.1 197.1 7Q194.7 6.9 192.2 6.2Q189.6 5.4 187.5 3.7Q185.3 2 184.4 -1Q184 -2.1 183.5 -4.1Q183 -6 182.5 -8.6Q181.9 -11.2 181.2 -14.1Q180.5 -17.1 179.8 -20.3Q178.3 -19.9 176.9 -19.9Q175.5 -19.8 174.1 -19.7Q172.7 -19.5 171.9 -20.3Q171.1 -21.1 170.9 -22.7Q170.6 -24.3 170.3 -25.8Q170 -27.4 169.6 -28.9Q168.8 -32 169.7 -33.4Q170.6 -34.9 173.3 -35.6Q174.7 -35.8 176.3 -36.2Q175.5 -39.5 175 -41.9Q174.4 -44.4 174 -45.8Q173.2 -48.9 175 -50.7Q176.9 -52.6 181 -53.4Q182.2 -53.6 183.4 -53.8Q184.6 -54 185.7 -54Q186.8 -53.9 187.8 -53.6Q188.8 -53.2 189.6 -52.3Q190.3 -51.4 190.5 -50.5Q190.9 -49.1 191.5 -46.4Q192.1 -43.7 192.7 -40.2Q196 -41 199 -41.8Q202 -42.6 204 -43.3Q207.4 -44.3 209.5 -42.7Q211.6 -41 212.5 -37.2Q212.8 -36.1 213.1 -35Q213.4 -33.8 213.4 -32.8Q213.5 -31.8 213.1 -30.8Q212.7 -29.9 211.7 -29Q211.3 -28.7 210.8 -28.4Q210.4 -28.1 209.9 -27.9Q207.1 -26.9 203.3 -25.9Q199.4 -24.9 195.3 -23.9Q195.7 -20.7 196.1 -17.8Q196.6 -14.8 197 -12.3Q197.4 -9.9 197.6 -8Q197.9 -6 198.1 -5Q198.2 -4.4 198.7 -4.1Q199.2 -3.8 199.8 -3.7Q200.4 -3.7 200.9 -3.8Q201.5 -4 201.7 -4.5zM170.5 -12Q170.5 -10.9 170.3 -9.7Q170.1 -8.6 170 -7.4Q169.8 -5.2 166.7 -5.3Q165.2 -5.5 163.8 -5.5Q162.4 -5.5 160.9 -5.5Q158 -5.4 156.9 -6.4Q155.7 -7.3 155.7 -9.6Q155.6 -11.7 155.5 -13.1Q155.5 -14.5 155.4 -15.7Q155.4 -16.8 155.3 -18Q155.2 -19.2 155 -20.9Q153.8 -21.4 152.4 -22.5Q151.1 -23.6 149.8 -24.9Q148.5 -26.3 147.5 -27.7Q146.5 -29.1 146 -30.2Q145.4 -31.5 145.7 -32.3Q146 -33.1 146.9 -33.9Q147.4 -34.3 148.9 -35.7Q150.4 -37.1 152.1 -38.7Q153.9 -40.3 155.5 -41.9Q157.3 -43.4 158.2 -44.3Q158.3 -44.4 158.5 -44.3Q158.8 -44.3 159 -44.1Q159.2 -44 159.2 -43.7Q159.3 -43.5 158.9 -43.1Q158.5 -42.7 157.4 -41.8Q156.3 -40.9 155.1 -39.9Q153.9 -39 152.8 -38.2Q151.8 -37.4 151.8 -37.4Q151.4 -37 152 -36.7Q152.5 -36.4 153 -36.9Q153.1 -37 153.9 -37.7Q154.6 -38.3 155.5 -39.2Q156.5 -40 157.6 -41Q158.7 -42 159.5 -42.9Q160.4 -43.8 161 -44.3Q161.5 -44.8 161.4 -44.8Q160.8 -44.6 160.3 -45.2Q159.9 -45.8 160.1 -45.9Q162.1 -47.7 164.3 -47.5Q166.5 -47.4 168.3 -46.1Q170 -44.8 171 -42.8Q171.9 -40.9 171.4 -39.2Q171.2 -38.4 170.5 -37.1Q169.8 -35.8 168.8 -34.3Q167.8 -32.8 166.8 -31.3Q165.8 -29.8 165 -28.7Q166.3 -28.7 167.3 -28.2Q168.3 -27.8 169 -26.6Q169.4 -25.8 169.6 -24.9Q170 -22.5 170.1 -21.1Q170.3 -19.7 170.3 -18.4Q170.4 -17.1 170.4 -15.7Q170.4 -14.3 170.5 -12zM205.3 -45.9Q204.9 -45.6 204.2 -45.1Q203.5 -44.6 202.5 -44.2Q201.5 -43.9 200.3 -43.9Q199 -43.9 197.6 -44.6Q196 -45.4 195 -46.9Q194 -48.5 194.2 -50.1Q194.5 -51.8 195.8 -53.4Q197.1 -54.9 198.6 -55.2Q200.8 -55.7 202.9 -54.8Q204.9 -53.9 205.9 -52Q207.8 -48.6 205.3 -45.9zM237.3 -18.6Q236.5 -18.4 235.9 -19.4Q235.4 -20.5 235.2 -22.3Q234.9 -24 235.5 -25.2Q236.2 -26.4 237.9 -26.7Q239 -26.9 239.9 -27.1Q240.8 -27.4 241.6 -27.5Q242.4 -27.6 243.2 -27.5Q244 -27.4 244.9 -26.9Q245.7 -26.4 246.5 -25.2Q247.3 -24 247.4 -21.7Q247.4 -19.7 247.4 -17.3Q247.4 -15 247.3 -12.7Q247.2 -10.4 246.9 -8.4Q246.7 -6.3 246.2 -4.9Q245.6 -2.7 244 -2.7Q243.9 -2.7 243.7 -2.7Q243.1 -2.5 242 -2.4Q241 -2.3 239.8 -2.2Q238.5 -2.2 237.2 -2.1Q235.9 -2 234.9 -2Q234.6 -1.8 234.4 -1.7Q233.9 -1.6 233.6 -1.6Q232.7 -1.4 231.8 -1.1Q230.8 -0.9 230 -0.6Q229.1 -0.5 228.1 -0.6Q227.2 -0.6 226.4 -1Q225.6 -1.3 225 -1.9Q224.5 -2.6 224.4 -3.5Q224.3 -4.5 224.1 -5.8Q223.9 -7.2 223.7 -8.6Q223.6 -10.1 223.4 -11.5Q223.3 -12.9 223.2 -13.8Q223.2 -13.9 223.3 -14Q223.3 -14.2 223.5 -14.2Q223.6 -14.3 223.8 -14.2Q223.9 -14.2 224 -13.8Q224.1 -13.4 224.2 -12.2Q224.4 -11.1 224.6 -9.8Q224.9 -8.6 225 -7.5Q225.1 -6.5 225.1 -6.4Q225.1 -6 225.5 -6.3Q225.9 -6.5 225.8 -7.1Q225.8 -7.1 225.7 -7.9Q225.6 -8.7 225.4 -10Q225.2 -11.2 225 -12.7Q224.8 -14.1 224.6 -15.4Q222.8 -16.1 220.9 -17.1Q219.1 -18.1 217.6 -19.4Q217 -19.9 216.9 -21.1Q216.7 -22.3 217.9 -24Q218.4 -24.6 219.1 -25.8Q219.9 -26.9 220.6 -28.2Q221.4 -29.6 222.2 -30.8Q222.9 -32 223.3 -32.8L221.3 -33Q219.2 -33.2 219.2 -36.2Q219.2 -39 219 -41.8Q218.8 -44.7 219.7 -45.9Q220.5 -47.1 222.7 -47.2Q227.2 -47.6 231.6 -48.3Q236.1 -49 240.5 -49.7Q243.3 -50.1 244.7 -48.3Q246.2 -46.6 246.4 -43Q246.5 -42 246.5 -40.9Q246.6 -39.9 246.5 -39Q246.4 -38.1 246 -37.3Q245.6 -36.4 244.7 -35.9Q244.4 -35.6 243.9 -35.5Q243.5 -35.3 243.1 -35.2Q242.3 -35 241.4 -34.8Q240.5 -34.7 239.8 -34.6Q238.8 -32.3 237 -29.2Q235.2 -26.1 233.3 -23Q233.4 -22.7 233.6 -22.1Q234.3 -18.7 234.5 -15.8Q234.8 -12.9 235.2 -9.6L238.9 -9.9Q239.2 -11.6 239.4 -13.2Q239.6 -14.8 239.6 -16.1Q239.6 -17.1 239.3 -18Q238.9 -18.9 237.3 -18.6zM269.9 -17.6Q268.5 -17.9 266.2 -17.9Q263.9 -17.9 261.4 -17.7Q258.8 -17.6 256.4 -17.4Q254 -17.3 252.4 -17.4Q251.8 -17.4 251.2 -17.8Q250.6 -18.1 250.1 -19Q249.6 -19.9 249.3 -21.2Q249 -22.6 249 -24.7Q249.1 -27.8 249.3 -30.5Q249.5 -33.1 249.9 -36.1Q250.1 -37.4 250.2 -38Q250.4 -38.6 250.7 -38.8Q250.9 -39.1 251.2 -39.1Q251.6 -39.1 251.9 -39.2Q253.3 -39.6 255.1 -39.7Q256.8 -39.8 258.4 -39.5Q260 -39.2 261.1 -38.5Q262.2 -37.9 262.1 -36.7Q261.9 -34.2 261.9 -32Q261.8 -29.9 261.9 -27.9Q264 -28.3 267.3 -28.7Q270.6 -29 273.8 -29.1Q277.1 -29.2 279.9 -29Q282.7 -28.8 283.8 -28Q285 -27.1 285.5 -25.3Q286.1 -23.4 286.2 -20.8Q286.2 -18.3 285.8 -15.3Q285.5 -12.4 284.8 -9.4Q284 -6.4 283.1 -3.6Q282.2 -0.9 281.2 1.2Q280.4 2.7 279 3.5Q277.6 4.4 275.8 4.6Q274 4.8 271.9 4.4Q269.9 3.9 267.8 2.7Q265.9 1.5 265.9 -0.5Q265.9 -2.5 266.8 -4.6Q267.7 -6.8 269 -8.9Q270.2 -10.9 270.8 -12.2Q272 -14.7 271.5 -16Q270.9 -17.4 269.9 -17.6zM252 -41.3Q251 -41.2 250.1 -42.5Q249.3 -43.8 248.9 -45.6Q248.5 -47.4 248.9 -49Q249.3 -50.6 250.8 -51Q252 -51.3 254.2 -51.7Q256.3 -52.1 259 -52.5Q261.6 -52.8 264.5 -53Q267.4 -53.2 270 -53.2Q272.7 -53.3 274.8 -53.1Q276.8 -52.8 277.8 -52.3Q279.1 -51.5 279.8 -49.3Q280.5 -47 280.6 -44.1Q280.7 -41.2 280.3 -38.1Q279.9 -35 279.1 -32.6Q278.2 -30 275.5 -29.7Q272.7 -29.3 268.4 -30.8Q267.1 -31.2 266.5 -31.7Q266 -32.2 265.9 -33Q265.8 -33.8 266 -34.7Q266.2 -35.7 266.4 -37Q266.5 -37.9 266.6 -38.8Q266.7 -39.7 266.6 -40.5Q266.5 -41.2 266.1 -41.8Q265.8 -42.3 265.1 -42.3Q262.9 -42.5 259.6 -42.3Q256.3 -42.1 252 -41.3zM265.7 -6.8Q264.2 -6.4 262 -6Q259.9 -5.7 257.7 -5.4Q255.5 -5.2 253.5 -5Q251.6 -4.9 250.5 -4.9Q249.7 -4.9 249.4 -5.4Q249.2 -5.9 249 -6.8Q248.8 -7.8 248.6 -8.7Q248.5 -9.6 248.4 -10.6Q248.3 -12.4 248.8 -13.2Q249.3 -14 250.8 -14.1Q253.8 -14.5 257.3 -14.8Q260.8 -15.2 263.7 -15.8Q265.6 -16.1 266.6 -15.1Q267.5 -14 267.7 -11.8Q267.8 -10.5 267.8 -9.2Q267.8 -8 266.7 -7.2Q266.2 -6.9 265.7 -6.8zM282 -4.2Q282 -4.5 282 -4.7Q282 -5 282.2 -5.1Q282.5 -5.6 282.8 -6.7Q283.3 -7.8 283.6 -9.1Q284 -10.4 284.2 -11.5Q284.5 -12.6 284.5 -13L284.5 -13.3Q284.4 -13.7 284.3 -13.6Q284.1 -13.6 284 -13.5Q283.4 -13.2 283.4 -12.2Q283.3 -11.2 282.6 -9Q282 -6.7 280.9 -4.3Q280.6 -3.5 281.2 -3.7L281.6 -3.8Q281.8 -3.8 282 -4.2zM250.7 -34.3Q250.6 -34.3 250.5 -33.7Q250.5 -33.1 250.6 -33.3L251.6 -33.3Q251.6 -32.9 251.4 -31.8Q251.3 -30.6 251.2 -29.3Q251.1 -28 251 -26.9Q251 -25.8 251.2 -25.7Q251.4 -25.8 251.5 -26.1Q251.6 -26.4 251.8 -26.8Q251.9 -27.2 251.9 -27.8Q252 -28.3 252 -29.2Q252.1 -30.2 252.1 -31.2Q252.1 -32.2 252.1 -33.1Q252.1 -34 252.1 -34.5Q252.1 -34.6 251.9 -34.9Q251.6 -34.8 251.2 -34.6Q250.8 -34.5 250.7 -34.3zM224.2 -32.7Q223.6 -31.9 222.9 -30.9Q222.2 -30 221.8 -29.4Q221.5 -28.8 220.9 -28.2Q220.4 -27.7 221.2 -26.7Q221.8 -27.6 222.8 -29.1Q223.7 -30.5 224.3 -31.4L225 -32.2Q225.1 -32.3 225.1 -32.2L225.5 -32.7L224.2 -32.7z" style="stroke-width: 0;" fill="#000000" id="masknamepathdata" stroke="#000000" paint-order="stroke" transform="matrix(1,0,0,1,0,0)"/><path d="M38 36.8125L38 38.3125L25.6 38.3125L25.6 36.8125L30.299999999999997 36.8125L30.299999999999997 21.2125L31.799999999999997 21.3125L31.799999999999997 26.9125L37 26.9125L37 28.3125L31.799999999999997 28.3125L31.799999999999997 36.8125L38 36.8125zM24.6 26.5125Q24.299999999999997 26.0125 24 25.5125Q23.6 24.9125 23.2 24.3125Q22.7 23.8125 22.3 23.3125Q21.9 22.8125 21.599999999999998 22.5125L22.7 21.5125Q23 21.8125 23.4 22.3125Q23.799999999999997 22.8125 24.299999999999997 23.4125Q24.7 23.9125 25.1 24.4125Q25.4 24.9125 25.7 25.3125L24.6 26.5125zM27.2 35.1125Q27.1 35.2125 26.7 35.6125Q26.2 35.9125 25.799999999999997 36.3125Q25.299999999999997 36.7125 24.799999999999997 37.1125Q24.4 37.5125 24.2 37.7125Q23.9 37.9125 23.7 38.2125Q23.4 38.5125 23.099999999999998 38.7125L22.2 37.6125Q22.599999999999998 37.3125 22.7 37.1125Q22.8 36.8125 22.8 36.4125L22.8 29.2125L20.099999999999998 29.2125L20.099999999999998 27.8125L24.299999999999997 27.8125L24.299999999999997 35.9125Q24.4 35.8125 24.799999999999997 35.5125Q25.1 35.1125 25.5 34.8125Q25.9 34.4125 26.2 34.1125Q26.5 33.8125 26.6 33.7125L27.2 35.1125zM57.400000000000006 36.4125L57.400000000000006 38.0125L40.099999999999994 38.0125L40.099999999999994 36.4125L47.9 36.4125L47.9 24.5125L41.4 24.5125L41.4 22.9125L56.099999999999994 22.9125L56.099999999999994 24.5125L49.599999999999994 24.5125L49.599999999999994 36.4125L57.400000000000006 36.4125zM70.7 25.7125L70.7 28.8125L75.9 28.8125L75.9 30.3125L70.7 30.3125L70.7 33.5125L76.2 33.5125L76.2 35.0125L70.7 35.0125L70.7 39.3125L69.2 39.3125L69.2 25.7125L68.3 25.7125Q67.7 26.7125 67 27.8125Q66.3 28.9125 65.3 30.2125L64.2 29.1125Q65 28.1125 65.7 27.1125Q66.4 26.1125 66.9 25.1125Q67.4 24.2125 67.8 23.2125Q68.2 22.3125 68.6 21.3125L70 21.8125Q69.8 22.4125 69.5 23.0125Q69.3 23.5125 69 24.2125L77 24.2125L77 25.7125L70.7 25.7125zM65.3 22.2125Q64.9 23.0125 64.5 24.0125Q64.1 24.9125 63.599999999999994 26.0125L63.599999999999994 39.3125L62.099999999999994 39.3125L62.099999999999994 28.7125Q61.2 30.1125 60 31.4125L59 30.3125Q59.900000000000006 29.2125 60.7 28.1125Q61.400000000000006 26.9125 62 25.8125Q62.599999999999994 24.7125 63 23.6125Q63.5 22.6125 63.8 21.6125L65.3 22.2125zM96.7 38.8125Q94.8 38.7125 93.3 38.5125Q91.9 38.4125 90.7 38.1125Q89.5 37.9125 88.5 37.6125Q87.60000000000001 37.3125 86.7 36.9125Q85.7 37.7125 84 38.3125Q82.3 38.9125 79.8 39.5125L79.2 38.2125Q81.4 37.7125 82.9 37.2125Q84.4 36.7125 85.3 36.1125Q84.60000000000001 35.6125 83.8 34.9125Q83.1 34.3125 82.2 33.4125L83 32.7125L81.5 32.7125L81.5 25.3125L87.4 25.3125L87.4 23.6125L80 23.6125L80 22.2125L96.3 22.2125L96.3 23.6125L89 23.6125L89 25.3125L94.8 25.3125L94.8 32.7125L88.9 32.7125Q88.8 33.7125 88.5 34.5125Q88.2 35.2125 87.8 35.9125Q88.60000000000001 36.2125 89.5 36.5125Q90.4 36.7125 91.60000000000001 36.9125Q92.7 37.1125 94 37.2125Q95.4 37.3125 97 37.3125L96.7 38.8125zM83 26.6125L83 28.4125L87.4 28.4125L87.4 26.6125L83 26.6125zM89 26.6125L89 28.4125L93.4 28.4125L93.4 26.6125L89 26.6125zM83 31.4125L87.4 31.4125L87.4 31.1125L87.4 29.6125L83 29.6125L83 31.4125zM93.4 31.4125L93.4 29.6125L89 29.6125L89 31.1125L89 31.4125L93.4 31.4125zM83.4 32.7125Q84.10000000000001 33.5125 84.8 34.1125Q85.60000000000001 34.7125 86.4 35.2125Q86.8 34.7125 87 34.1125Q87.3 33.5125 87.4 32.7125L83.4 32.7125zM106.7 34.9125Q106.2 35.0125 105.60000000000001 35.1125Q104.9 35.2125 104.2 35.3125L104.2 39.3125L102.8 39.3125L102.8 35.5125Q101.7 35.7125 100.60000000000001 35.8125Q99.60000000000001 36.0125 98.9 36.1125L98.60000000000001 34.6125Q99.4 34.5125 100.5 34.4125Q101.60000000000001 34.2125 102.8 34.1125L102.8 31.1125L99.5 31.1125L99.5 29.7125Q99.9 28.9125 100.3 27.7125Q100.7 26.5125 101 25.3125L99.10000000000001 25.3125L99.10000000000001 23.8125L101.4 23.8125Q101.60000000000001 23.1125 101.8 22.4125Q102 21.7125 102.10000000000001 21.1125L103.5 21.4125Q103.3 22.0125 103.2 22.6125Q103 23.2125 102.9 23.8125L106.5 23.8125L106.5 25.3125L102.5 25.3125Q102.10000000000001 26.5125 101.7 27.7125Q101.4 28.9125 101 29.7125L102.8 29.7125L102.8 26.2125L104.2 26.3125L104.2 29.7125L106.2 29.7125L106.2 31.1125L104.2 31.1125L104.2 33.9125Q104.9 33.8125 105.5 33.7125Q106.10000000000001 33.6125 106.60000000000001 33.5125L106.7 34.9125zM106.3 29.3125Q108.5 28.2125 110.10000000000001 26.9125Q111.7 25.6125 112.9 24.0125L107.10000000000001 24.0125L107.10000000000001 22.6125L114.8 22.6125L114.8 23.9125Q114.3 24.7125 113.7 25.4125Q113.2 26.1125 112.5 26.7125Q113.10000000000001 27.0125 113.7 27.4125Q114.3 27.7125 114.9 28.1125Q115.5 28.4125 116 28.8125Q116.5 29.1125 116.9 29.4125L116.3 30.8125Q115.9 30.5125 115.3 30.1125Q114.8 29.7125 114.10000000000001 29.2125Q113.5 28.8125 112.8 28.4125Q112.10000000000001 28.0125 111.5 27.7125Q110.5 28.5125 109.4 29.2125Q108.4 30.0125 107.10000000000001 30.6125L106.3 29.3125zM111.9 36.9125L116.60000000000001 36.9125L116.60000000000001 38.4125L105.9 38.4125L105.9 36.9125L110.4 36.9125L110.4 33.0125L107 33.0125L107 31.5125L115.4 31.5125L115.4 33.0125L111.9 33.0125L111.9 36.9125zM124.8 32.5125Q124.7 32.2125 124.4 31.9125Q124.2 31.6125 124 31.2125Q123.7 30.9125 123.4 30.5125Q123.2 30.2125 122.9 29.9125L122.9 39.2125L121.5 39.2125L121.5 29.6125Q121 30.8125 120.4 32.0125Q119.8 33.2125 119.10000000000001 34.2125L118 33.3125Q118.5 32.6125 118.9 31.8125Q119.4 31.0125 119.9 30.1125Q120.4 29.2125 120.8 28.3125Q121.2 27.3125 121.4 26.4125L118.8 26.4125L118.8 25.0125L121.5 25.0125L121.5 21.1125L122.9 21.1125L122.9 25.0125L125.10000000000001 25.0125L125.10000000000001 26.4125L122.9 26.4125L122.9 28.9125L123.3 28.5125Q123.60000000000001 28.7125 123.9 29.1125Q124.3 29.4125 124.60000000000001 29.8125Q125 30.3125 125.3 30.7125Q125.60000000000001 31.1125 125.8 31.4125L124.8 32.5125zM135.5 31.0125Q134.6 29.9125 133.9 28.8125Q133.2 27.8125 132.6 26.7125Q132.1 25.6125 131.6 24.3125Q131.2 23.0125 130.79999999999998 21.5125L132.1 21.2125Q132.79999999999998 24.0125 134 26.1125Q135.1 28.2125 136.79999999999998 29.9125L135.5 31.0125zM124.8 29.2125Q126 27.6125 126.8 25.8125Q127.7 24.0125 128.29999999999998 21.9125L129.6 22.2125Q129 24.5125 128.1 26.5125Q127.10000000000001 28.5125 125.9 30.1125L124.8 29.2125zM132.4 32.0125Q132.79999999999998 32.6125 133.2 33.3125Q133.6 34.1125 134 34.9125Q134.4 35.8125 134.79999999999998 36.7125Q135.2 37.6125 135.5 38.5125L134.2 39.3125Q133.9 38.4125 133.5 37.5125Q133.2 37.5125 132.6 37.5125Q132 37.6125 131.4 37.7125Q130.7 37.7125 130 37.8125Q129.29999999999998 37.9125 128.7 37.9125Q128.1 38.0125 127.60000000000001 38.0125Q127.2 38.1125 127 38.1125Q126.7 38.1125 126.3 38.2125Q125.9 38.2125 125.5 38.3125L125.10000000000001 36.9125Q125.5 36.7125 125.7 36.5125Q125.9 36.4125 126 36.1125Q126.4 35.4125 126.9 34.5125Q127.3 33.5125 127.7 32.5125Q128.2 31.5125 128.6 30.4125Q129 29.3125 129.4 28.2125L130.7 28.6125Q130.4 29.7125 130 30.8125Q129.6 31.9125 129.1 33.0125Q128.7 34.0125 128.2 34.9125Q127.8 35.8125 127.4 36.6125Q127.7 36.5125 128.4 36.5125Q129.1 36.4125 129.9 36.4125Q130.79999999999998 36.3125 131.6 36.2125Q132.4 36.1125 132.9 36.1125Q132.5 35.0125 132 34.1125Q131.6 33.2125 131.2 32.5125L132.4 32.0125zM140 40.0125Q140.4 39.4125 140.7 38.7125Q141.1 38.0125 141.29999999999998 37.3125Q141.6 36.6125 141.7 36.0125Q141.9 35.3125 141.9 34.8125L143.5 34.8125Q143.5 35.4125 143.29999999999998 36.1125Q143.1 36.9125 142.79999999999998 37.5125Q142.5 38.3125 142.2 38.9125Q141.79999999999998 39.5125 141.4 40.0125L140 40.0125zM175.79999999999998 36.8125L175.79999999999998 38.3125L163.29999999999998 38.3125L163.29999999999998 36.8125L168 36.8125L168 21.2125L169.5 21.3125L169.5 26.9125L174.79999999999998 26.9125L174.79999999999998 28.3125L169.5 28.3125L169.5 36.8125L175.79999999999998 36.8125zM162.29999999999998 26.5125Q162.1 26.0125 161.7 25.5125Q161.29999999999998 24.9125 160.89999999999998 24.3125Q160.5 23.8125 160.1 23.3125Q159.7 22.8125 159.39999999999998 22.5125L160.39999999999998 21.5125Q160.79999999999998 21.8125 161.2 22.3125Q161.6 22.8125 162 23.4125Q162.39999999999998 23.9125 162.79999999999998 24.4125Q163.2 24.9125 163.39999999999998 25.3125L162.29999999999998 26.5125zM165 35.1125Q164.79999999999998 35.2125 164.39999999999998 35.6125Q164 35.9125 163.5 36.3125Q163 36.7125 162.6 37.1125Q162.1 37.5125 161.89999999999998 37.7125Q161.7 37.9125 161.39999999999998 38.2125Q161.1 38.5125 160.89999999999998 38.7125L160 37.6125Q160.29999999999998 37.3125 160.39999999999998 37.1125Q160.6 36.8125 160.6 36.4125L160.6 29.2125L157.89999999999998 29.2125L157.89999999999998 27.8125L162 27.8125L162 35.9125Q162.2 35.8125 162.5 35.5125Q162.89999999999998 35.1125 163.29999999999998 34.8125Q163.7 34.4125 164 34.1125Q164.29999999999998 33.8125 164.39999999999998 33.7125L165 35.1125zM195.2 36.8125L195.2 38.3125L178.29999999999998 38.3125L178.29999999999998 36.8125L186.1 36.8125L186.1 32.1125L180 32.1125L180 30.7125L186.1 30.7125L186.1 26.6125L181.29999999999998 26.6125Q180.79999999999998 27.6125 180.2 28.6125Q179.7 29.5125 179.1 30.5125L177.7 29.5125Q179 27.8125 179.89999999999998 26.0125Q180.89999999999998 24.2125 181.5 22.0125L182.89999999999998 22.4125Q182.7 23.1125 182.39999999999998 23.8125Q182.2 24.5125 181.89999999999998 25.1125L186.1 25.1125L186.1 21.2125L187.7 21.3125L187.7 25.1125L194.39999999999998 25.1125L194.39999999999998 26.6125L187.7 26.6125L187.7 30.7125L193.7 30.7125L193.7 32.1125L187.7 32.1125L187.7 36.8125L195.2 36.8125zM201.7 26.0125Q201.39999999999998 25.6125 200.89999999999998 25.2125Q200.39999999999998 24.8125 199.89999999999998 24.4125Q199.39999999999998 24.0125 198.89999999999998 23.6125Q198.39999999999998 23.3125 198.1 23.1125L198.89999999999998 21.9125Q199.29999999999998 22.1125 199.79999999999998 22.5125Q200.29999999999998 22.8125 200.79999999999998 23.2125Q201.29999999999998 23.5125 201.79999999999998 23.9125Q202.2 24.3125 202.5 24.6125L201.7 26.0125zM209.2 28.7125L209.2 31.7125L213.29999999999998 31.7125L213.29999999999998 39.4125L211.79999999999998 39.4125L211.79999999999998 38.3125L205.2 38.3125L205.2 39.4125L203.7 39.4125L203.7 31.7125L207.7 31.7125L207.7 28.7125L202.5 28.7125L202.5 27.3125L207.7 27.3125L207.7 24.2125Q206.39999999999998 24.3125 205.29999999999998 24.4125Q204.1 24.4125 203.2 24.5125L203 23.1125Q204.1 23.0125 205.5 22.9125Q207 22.8125 208.39999999999998 22.7125Q209.89999999999998 22.6125 211.2 22.4125Q212.6 22.2125 213.6 22.1125L213.79999999999998 23.5125Q212.89999999999998 23.6125 211.7 23.8125Q210.5 23.9125 209.2 24.0125L209.2 27.3125L215.1 27.3125L215.1 28.7125L209.2 28.7125zM198 26.4125Q198.39999999999998 26.7125 198.89999999999998 27.1125Q199.39999999999998 27.4125 200 27.8125Q200.5 28.2125 201 28.6125Q201.5 29.0125 201.79999999999998 29.3125L201 30.8125Q200.6 30.4125 200.1 30.0125Q199.6 29.5125 199.1 29.1125Q198.5 28.7125 198 28.3125Q197.5 27.9125 197.1 27.6125L198 26.4125zM201.1 32.1125L201.79999999999998 32.4125Q201.7 33.1125 201.39999999999998 34.0125Q201.1 34.9125 200.7 35.8125Q200.39999999999998 36.7125 200 37.6125Q199.7 38.5125 199.39999999999998 39.0125L197.89999999999998 38.5125Q198.2 38.0125 198.6 37.1125Q199 36.2125 199.29999999999998 35.3125Q199.7 34.4125 200 33.5125Q200.29999999999998 32.5125 200.39999999999998 31.9125L201.1 32.1125zM211.79999999999998 33.1125L205.2 33.1125L205.2 36.8125L211.79999999999998 36.8125L211.79999999999998 33.1125zM234.39999999999998 38.8125Q232.6 38.7125 231.1 38.5125Q229.6 38.4125 228.39999999999998 38.1125Q227.2 37.9125 226.29999999999998 37.6125Q225.29999999999998 37.3125 224.5 36.9125Q223.39999999999998 37.7125 221.7 38.3125Q220.1 38.9125 217.6 39.5125L217 38.2125Q219.2 37.7125 220.7 37.2125Q222.1 36.7125 223.1 36.1125Q222.29999999999998 35.6125 221.6 34.9125Q220.79999999999998 34.3125 220 33.4125L220.79999999999998 32.7125L219.29999999999998 32.7125L219.29999999999998 25.3125L225.2 25.3125L225.2 23.6125L217.79999999999998 23.6125L217.79999999999998 22.2125L234.1 22.2125L234.1 23.6125L226.7 23.6125L226.7 25.3125L232.6 25.3125L232.6 32.7125L226.6 32.7125Q226.5 33.7125 226.29999999999998 34.5125Q226 35.2125 225.5 35.9125Q226.29999999999998 36.2125 227.2 36.5125Q228.2 36.7125 229.29999999999998 36.9125Q230.5 37.1125 231.79999999999998 37.2125Q233.2 37.3125 234.79999999999998 37.3125L234.39999999999998 38.8125zM220.7 26.6125L220.7 28.4125L225.2 28.4125L225.2 26.6125L220.7 26.6125zM226.7 26.6125L226.7 28.4125L231.1 28.4125L231.1 26.6125L226.7 26.6125zM220.7 31.4125L225.2 31.4125L225.2 31.1125L225.2 29.6125L220.7 29.6125L220.7 31.4125zM231.1 31.4125L231.1 29.6125L226.7 29.6125L226.7 31.1125L226.7 31.4125L231.1 31.4125zM221.1 32.7125Q221.89999999999998 33.5125 222.6 34.1125Q223.29999999999998 34.7125 224.2 35.2125Q224.6 34.7125 224.79999999999998 34.1125Q225 33.5125 225.1 32.7125L221.1 32.7125zM254.1 30.9125L236.7 30.9125L236.7 29.6125L244.7 29.6125L244.7 27.9125L238.2 27.9125L238.2 26.7125L244.7 26.7125L244.7 24.9125L237.6 24.9125L237.6 23.7125L242.1 23.7125Q241.7 23.2125 241.2 22.7125Q240.79999999999998 22.2125 240.39999999999998 21.8125L241.39999999999998 21.0125Q241.6 21.2125 241.89999999999998 21.4125Q242.2 21.7125 242.5 22.0125Q242.7 22.3125 243 22.6125Q243.2 22.8125 243.39999999999998 23.1125L242.79999999999998 23.7125L246.89999999999998 23.7125Q247.2 23.4125 247.5 23.0125Q247.79999999999998 22.6125 248.1 22.3125Q248.39999999999998 21.9125 248.7 21.5125Q249 21.1125 249.1 20.8125L250.29999999999998 21.6125Q250.1 22.0125 249.6 22.6125Q249.2 23.1125 248.79999999999998 23.7125L253.2 23.7125L253.2 24.9125L246.2 24.9125L246.2 26.7125L252.6 26.7125L252.6 27.9125L246.2 27.9125L246.2 29.6125L254.1 29.6125L254.1 30.9125zM246.39999999999998 34.4125Q247.29999999999998 35.5125 249.2 36.5125Q251.1 37.5125 254.39999999999998 38.0125L253.79999999999998 39.5125Q250.5 38.8125 248.5 37.7125Q246.39999999999998 36.7125 245.39999999999998 35.4125Q245 36.0125 244.29999999999998 36.6125Q243.6 37.2125 242.5 37.7125Q241.5 38.2125 240.1 38.7125Q238.7 39.1125 236.89999999999998 39.5125L236.29999999999998 38.0125Q238.1 37.7125 239.5 37.3125Q240.79999999999998 36.9125 241.79999999999998 36.4125Q242.7 35.9125 243.29999999999998 35.4125Q243.89999999999998 34.9125 244.2 34.4125L237.39999999999998 34.4125L237.39999999999998 33.1125L244.6 33.1125Q244.6 32.9125 244.6 32.7125Q244.6 32.5125 244.6 32.2125Q244.6 32.0125 244.6 31.8125Q244.6 31.6125 244.6 31.4125L246.2 31.5125Q246.2 31.6125 246.2 31.8125Q246.2 32.0125 246.2 32.2125Q246.2 32.5125 246.2 32.7125Q246.2 32.9125 246.2 33.1125L253.39999999999998 33.1125L253.39999999999998 34.4125L246.39999999999998 34.4125zM262 34.0125Q262.7 34.6125 263.4 35.3125Q264.1 35.9125 264.6 36.4125L263.6 37.9125Q263.1 37.3125 262.5 36.7125Q261.9 36.0125 261.1 35.4125Q260.4 36.4125 259.5 37.3125Q258.6 38.2125 257.3 39.3125L256.1 38.2125Q257.4 37.2125 258.4 36.3125Q259.3 35.4125 260 34.4125Q259.3 33.7125 258.6 33.2125Q257.9 32.6125 257.4 32.3125Q257.7 30.9125 258 29.4125Q258.3 27.9125 258.6 26.3125L256.5 26.3125L256.5 24.8125L258.8 24.8125Q258.9 23.9125 259 23.0125Q259.1 22.1125 259.2 21.2125L260.6 21.3125Q260.5 22.3125 260.4 23.1125Q260.3 24.0125 260.2 24.8125L263.8 24.8125L263.8 26.2125Q263.5 28.9125 263.1 30.7125Q262.7 32.6125 262 34.0125zM274.1 31.0125L269.6 31.0125L269.6 36.7125Q269.6 37.3125 269.5 37.8125Q269.4 38.2125 269.1 38.5125Q268.8 38.8125 268.2 38.9125Q267.7 39.0125 266.9 39.1125L265.8 39.2125L265.4 37.6125L266.6 37.5125Q267.1 37.5125 267.4 37.4125Q267.7 37.3125 267.9 37.2125Q268 37.0125 268.1 36.8125Q268.1 36.5125 268.1 36.1125L268.1 31.0125L263.9 31.0125L263.9 29.5125L268.1 29.5125L268.1 27.1125Q269 26.4125 269.8 25.7125Q270.6 24.9125 271.4 24.1125L264.7 24.1125L264.7 22.6125L273.3 22.6125L273.3 24.1125Q272.4 25.1125 271.5 26.0125Q270.7 26.8125 269.6 27.6125L269.6 29.5125L274.1 29.5125L274.1 31.0125zM258.9 31.6125Q259.3 31.9125 259.8 32.2125Q260.3 32.6125 260.8 33.0125Q261.4 31.8125 261.8 30.2125Q262.2 28.6125 262.5 26.3125L260 26.3125Q259.8 27.7125 259.5 29.0125Q259.3 30.3125 258.9 31.6125z" style="stroke-width: 0;" fill="#000000" id="masksloganpathdata" stroke="#000000" paint-order="stroke" transform="matrix(1,0,0,1,0,0)"/></mask>
          </defs>
          
        </g>
        </svg>